<?xml version="1.0" encoding="UTF-8"?>
<svg version="1.1" xmlns="http://www.w3.org/2000/svg" width="75" height="75">
<path d="M0 0 C3.24601284 2.71759214 5.43417737 4.58353444 6.0859375 8.87109375 C6.07820313 9.80050781 6.07046875 10.72992188 6.0625 11.6875 C6.07410156 13.07775391 6.07410156 13.07775391 6.0859375 14.49609375 C5.6875 17.25 5.6875 17.25 4.16015625 19.73828125 C2.35955627 22.80933108 2.49444541 24.48728597 2.75 28 C2.87558953 35.92180116 1.18512673 40.68769394 -4.25 46.47265625 C-7.19125784 49.48590906 -10.22817262 52.38390333 -13.3125 55.25 C-12.20777344 55.229375 -11.10304687 55.20875 -9.96484375 55.1875 C-6.58300551 55.24537103 -5.08651434 55.47463082 -2.3125 57.25 C-2.0625 60.0625 -2.0625 60.0625 -2.3125 63.25 C-6.45189077 67.08684001 -11.73336899 68.27013962 -17 69.9375 C-17.95583984 70.25783203 -18.91167969 70.57816406 -19.89648438 70.90820312 C-29.6975791 74.04161378 -36.8207429 73.72723573 -46.5625 70.75 C-54.50112404 68.47166101 -61.01087343 67.76166903 -69.3125 68.25 C-69.3125 60.66 -69.3125 53.07 -69.3125 45.25 C-64.6925 45.25 -60.0725 45.25 -55.3125 45.25 C-55.951875 44.321875 -56.59125 43.39375 -57.25 42.4375 C-60.00152035 38.18515037 -60.46901229 35.34542893 -60.5 30.375 C-60.51417969 29.34632812 -60.52835938 28.31765625 -60.54296875 27.2578125 C-60.30831369 24.19536512 -59.60434572 22.01751139 -58.3125 19.25 C-57.3225 19.25 -56.3325 19.25 -55.3125 19.25 C-55.4775 20.054375 -55.6425 20.85875 -55.8125 21.6875 C-56.92600363 29.62121339 -56.82398397 35.38398243 -52.3125 42.25 C-50.53615733 44.45150644 -50.53615733 44.45150644 -48.23706055 44.4453125 C-47.39957275 44.42210937 -46.56208496 44.39890625 -45.69921875 44.375 C-44.3215332 44.35179688 -44.3215332 44.35179688 -42.91601562 44.328125 C-40.98371553 44.27635541 -39.05142371 44.2242759 -37.11914062 44.171875 C-28.18813723 44.02208878 -28.18813723 44.02208878 -24.3125 46.25 C-22.3125 48.25 -22.3125 48.25 -22 51.25 C-22.103125 52.24 -22.20625 53.23 -22.3125 54.25 C-26.00655432 56.71270288 -27.94527072 56.47985417 -32.3125 56.25 C-34.75 55.75 -34.75 55.75 -36.3125 55.25 C-36.3125 55.91 -36.3125 56.57 -36.3125 57.25 C-31.0325 57.58 -25.7525 57.91 -20.3125 58.25 C-19.6525 56.93 -18.9925 55.61 -18.3125 54.25 C-16.93969727 52.68188477 -16.93969727 52.68188477 -15.37890625 51.19140625 C-14.81236328 50.64033203 -14.24582031 50.08925781 -13.66210938 49.52148438 C-12.47469467 48.38597851 -11.28719524 47.25056123 -10.09960938 46.11523438 C-4.38274763 40.67887633 -4.38274763 40.67887633 -2.01953125 33.35546875 C-2.07173828 31.91107422 -2.07173828 31.91107422 -2.125 30.4375 C-2.15207031 29.46167969 -2.17914063 28.48585938 -2.20703125 27.48046875 C-2.25923828 26.37638672 -2.25923828 26.37638672 -2.3125 25.25 C-2.96476562 25.29640625 -3.61703125 25.3428125 -4.2890625 25.390625 C-10.18962549 25.63430607 -13.73133824 25.38421915 -18.3125 21.25 C-20.1875 18.5 -20.1875 18.5 -21.3125 16.25 C-22.22 17.095625 -23.1275 17.94125 -24.0625 18.8125 C-27.01497324 21.24070229 -27.01497324 21.24070229 -29.3125 21.3125 C-32.11660585 19.82281877 -34.68947956 18.03588626 -37.3125 16.25 C-40.88884313 15.05788562 -43.55314683 14.99073426 -47.3125 15.25 C-50.02376384 16.67621684 -50.02376384 16.67621684 -52.3125 18.25 C-53.3025 18.25 -54.2925 18.25 -55.3125 18.25 C-54.94202871 15.80591855 -54.6982319 14.57767531 -52.78125 12.94921875 C-47.37309093 10.17002589 -43.19360299 9.48764927 -37.3125 11.25 C-34.17008292 12.71136721 -31.22919586 14.38138398 -28.3125 16.25 C-22.9680151 13.28084172 -21.31078069 11.02281088 -19.3125 5.25 C-18.3225 5.25 -17.3325 5.25 -16.3125 5.25 C-16.35890625 5.91386719 -16.4053125 6.57773438 -16.453125 7.26171875 C-16.72717274 13.07377204 -16.72717274 13.07377204 -14.4375 18.3125 C-11.91142619 20.61568494 -10.90099559 21.1846116 -7.5 21.5625 C-3.5817355 21.17835642 -2.09956733 19.95743683 0.6875 17.25 C2.25685594 14.11128812 2.03951103 11.71144178 1.6875 8.25 C-0.76945066 4.92589028 -2.41713435 3.52409153 -6.375 2.3125 C-9.47132198 2.24662081 -10.70048411 2.71881827 -13.3125 4.25 C-14.3025 4.25 -15.2925 4.25 -16.3125 4.25 C-15.98262361 1.77592708 -15.73277913 0.5862233 -13.75 -1 C-8.53614227 -2.60426392 -4.73978492 -2.50403732 0 0 Z M-56.3125 50.25 C-56.3125 54.87 -56.3125 59.49 -56.3125 64.25 C-52.86077532 65.3199742 -49.40425655 66.35588928 -45.9375 67.375 C-44.97199219 67.67792969 -44.00648437 67.98085937 -43.01171875 68.29296875 C-36.08874257 70.29087463 -31.18839286 70.32275705 -24.3125 68.25 C-23.50361328 68.0221582 -22.69472656 67.79431641 -21.86132812 67.55957031 C-19.47229272 66.85900442 -17.11253992 66.09737728 -14.75 65.3125 C-13.94498047 65.06048828 -13.13996094 64.80847656 -12.31054688 64.54882812 C-10.27721245 63.87791356 -8.28889533 63.07367271 -6.3125 62.25 C-5.9825 61.26 -5.6525 60.27 -5.3125 59.25 C-5.96734375 59.31058594 -6.6221875 59.37117188 -7.296875 59.43359375 C-9.23266117 59.61131423 -11.16890572 59.7840797 -13.10546875 59.953125 C-15.19391584 60.14645262 -17.28030727 60.36400547 -19.36328125 60.609375 C-26.09274754 61.34254642 -31.76701993 61.00221922 -38.3125 59.25 C-39.3125 54.5 -39.3125 54.5 -39.3125 52.25 C-35.0225 52.25 -30.7325 52.25 -26.3125 52.25 C-26.3125 51.26 -26.3125 50.27 -26.3125 49.25 C-36.32371182 45.14283618 -46.20560537 48.01290079 -56.3125 50.25 Z M-66.3125 48.25 C-66.3125 53.86 -66.3125 59.47 -66.3125 65.25 C-64.0025 65.25 -61.6925 65.25 -59.3125 65.25 C-59.3125 59.64 -59.3125 54.03 -59.3125 48.25 C-61.6225 48.25 -63.9325 48.25 -66.3125 48.25 Z " fill="#0A6DC3" transform="translate(69.3125,1.75)"/>
<path d="M0 0 C1.8125 0.125 1.8125 0.125 4 1 C7 6.03571429 7 6.03571429 7 9 C7.66 9 8.32 9 9 9 C9.66 7.68 10.32 6.36 11 5 C14.63 5 18.26 5 22 5 C22.495 6.485 22.495 6.485 23 8 C22.32453125 8.00257812 21.6490625 8.00515625 20.953125 8.0078125 C15.79458957 8.05071705 15.79458957 8.05071705 11.4453125 10.40234375 C10.22165792 12.21866453 10.22165792 12.21866453 9 15 C4.60841671 13.5361389 4.12052567 11.02168662 2 7 C0.29159719 8.63412443 -0.93453047 9.86906094 -2 12 C-2.598125 11.835 -3.19625 11.67 -3.8125 11.5 C-6.11344336 10.8885876 -6.11344336 10.8885876 -9 11 C-12.33333333 11 -15.66666667 11 -19 11 C-19 10.01 -19 9.02 -19 8 C-16.36 8 -13.72 8 -11 8 C-10.34 6.35 -9.68 4.7 -9 3 C-7.68 3.33 -6.36 3.66 -5 4 C-5 4.66 -5 5.32 -5 6 C-2.9754262 4.06745228 -1.57894208 2.36841312 0 0 Z " fill="#0A6DC1" transform="translate(39,28)"/>
<path d="M0 0 C1.32 0 2.64 0 4 0 C4 1.32 4 2.64 4 4 C5.32 4 6.64 4 8 4 C8 4.99 8 5.98 8 7 C6.68 7 5.36 7 4 7 C4 8.32 4 9.64 4 11 C2.68 11 1.36 11 0 11 C0 9.68 0 8.36 0 7 C-1.32 7 -2.64 7 -4 7 C-4 6.01 -4 5.02 -4 4 C-2.68 4 -1.36 4 0 4 C0 2.68 0 1.36 0 0 Z " fill="#0A6FC2" transform="translate(60,8)"/>
</svg>
