<svg width="194" height="45" viewBox="0 0 194 45" fill="none" xmlns="http://www.w3.org/2000/svg">
<path d="M69.145 13.58C69.145 13.6967 69.0983 13.8017 69.005 13.895C68.935 13.965 68.8417 14 68.725 14H56.79C56.6733 14 56.615 14.0583 56.615 14.175V20.72C56.615 20.8367 56.6733 20.895 56.79 20.895H64.805C64.9217 20.895 65.015 20.9417 65.085 21.035C65.1783 21.105 65.225 21.1983 65.225 21.315V23.975C65.225 24.0917 65.1783 24.1967 65.085 24.29C65.015 24.36 64.9217 24.395 64.805 24.395H56.79C56.6733 24.395 56.615 24.4533 56.615 24.57V31.325C56.615 31.4417 56.6733 31.5 56.79 31.5H68.725C68.8417 31.5 68.935 31.5467 69.005 31.64C69.0983 31.71 69.145 31.8033 69.145 31.92V34.58C69.145 34.6967 69.0983 34.8017 69.005 34.895C68.935 34.965 68.8417 35 68.725 35H52.975C52.8583 35 52.7533 34.965 52.66 34.895C52.59 34.8017 52.555 34.6967 52.555 34.58V10.92C52.555 10.8033 52.59 10.71 52.66 10.64C52.7533 10.5467 52.8583 10.5 52.975 10.5H68.725C68.8417 10.5 68.935 10.5467 69.005 10.64C69.0983 10.71 69.145 10.8033 69.145 10.92V13.58ZM77.7129 35C77.4796 35 77.3279 34.8833 77.2579 34.65L71.6229 17.57C71.5996 17.5233 71.5879 17.465 71.5879 17.395C71.5879 17.185 71.7162 17.08 71.9729 17.08H75.5429C75.7996 17.08 75.9629 17.1967 76.0329 17.43L79.4279 29.12C79.4512 29.19 79.4862 29.225 79.5329 29.225C79.5796 29.225 79.6146 29.19 79.6379 29.12L83.0329 17.43C83.1029 17.1967 83.2662 17.08 83.5229 17.08L87.0929 17.15C87.2329 17.15 87.3379 17.1967 87.4079 17.29C87.4779 17.36 87.4896 17.4767 87.4429 17.64L81.8429 34.65C81.7729 34.8833 81.6212 35 81.3879 35H77.7129ZM104.648 24.045C104.741 24.6283 104.788 25.2817 104.788 26.005L104.753 27.09C104.753 27.37 104.613 27.51 104.333 27.51H93.3776C93.2609 27.51 93.2026 27.5683 93.2026 27.685C93.2726 28.455 93.3776 28.98 93.5176 29.26C94.0776 30.94 95.4426 31.7917 97.6126 31.815C99.1992 31.815 100.459 31.1617 101.393 29.855C101.486 29.715 101.603 29.645 101.743 29.645C101.836 29.645 101.918 29.68 101.988 29.75L104.158 31.535C104.368 31.6983 104.403 31.885 104.263 32.095C103.539 33.1217 102.571 33.915 101.358 34.475C100.168 35.035 98.8376 35.315 97.3676 35.315C95.5476 35.315 93.9959 34.9067 92.7126 34.09C91.4526 33.2733 90.5309 32.13 89.9476 30.66C89.4109 29.4 89.1426 27.65 89.1426 25.41C89.1426 24.0567 89.2826 22.96 89.5626 22.12C90.0292 20.4867 90.9042 19.2033 92.1876 18.27C93.4942 17.3133 95.0576 16.835 96.8776 16.835C101.474 16.835 104.064 19.2383 104.648 24.045ZM96.8776 20.335C96.0142 20.335 95.2909 20.5567 94.7076 21C94.1476 21.42 93.7509 22.015 93.5176 22.785C93.3776 23.1817 93.2842 23.695 93.2376 24.325C93.1909 24.4417 93.2376 24.5 93.3776 24.5H100.483C100.599 24.5 100.658 24.4417 100.658 24.325C100.611 23.7417 100.541 23.2983 100.448 22.995C100.238 22.155 99.8176 21.5017 99.1876 21.035C98.5809 20.5683 97.8109 20.335 96.8776 20.335ZM117.073 16.835C118.963 16.835 120.468 17.395 121.588 18.515C122.731 19.635 123.303 21.1633 123.303 23.1V34.58C123.303 34.6967 123.256 34.8017 123.163 34.895C123.093 34.965 123 35 122.883 35H119.663C119.546 35 119.441 34.965 119.348 34.895C119.278 34.8017 119.243 34.6967 119.243 34.58V23.94C119.243 22.8667 118.94 22.0033 118.333 21.35C117.726 20.6733 116.921 20.335 115.918 20.335C114.915 20.335 114.098 20.6617 113.468 21.315C112.861 21.9683 112.558 22.8317 112.558 23.905V34.58C112.558 34.6967 112.511 34.8017 112.418 34.895C112.348 34.965 112.255 35 112.138 35H108.918C108.801 35 108.696 34.965 108.603 34.895C108.533 34.8017 108.498 34.6967 108.498 34.58V17.535C108.498 17.4183 108.533 17.325 108.603 17.255C108.696 17.1617 108.801 17.115 108.918 17.115H112.138C112.255 17.115 112.348 17.1617 112.418 17.255C112.511 17.325 112.558 17.4183 112.558 17.535V18.655C112.558 18.725 112.581 18.7717 112.628 18.795C112.675 18.8183 112.71 18.795 112.733 18.725C113.69 17.465 115.136 16.835 117.073 16.835Z" fill="white"/>
<path d="M134.854 35.28C133.058 35.28 131.506 34.825 130.199 33.915C128.893 32.9817 127.983 31.7333 127.469 30.17C127.096 29.12 126.909 27.72 126.909 25.97C126.909 24.29 127.096 22.9133 127.469 21.84C127.959 20.3 128.858 19.0867 130.164 18.2C131.494 17.29 133.058 16.835 134.854 16.835C136.674 16.835 138.261 17.29 139.614 18.2C140.968 19.11 141.866 20.2533 142.309 21.63C142.426 22.0033 142.508 22.3767 142.554 22.75V22.82C142.554 23.0533 142.426 23.1933 142.169 23.24L139.019 23.695H138.949C138.739 23.695 138.599 23.5783 138.529 23.345C138.529 23.2283 138.518 23.135 138.494 23.065C138.448 22.8783 138.401 22.715 138.354 22.575C138.144 21.9217 137.724 21.385 137.094 20.965C136.464 20.545 135.718 20.335 134.854 20.335C133.968 20.335 133.209 20.5683 132.579 21.035C131.973 21.4783 131.564 22.0967 131.354 22.89C131.121 23.6367 131.004 24.675 131.004 26.005C131.004 27.2883 131.109 28.3267 131.319 29.12C131.553 29.9367 131.973 30.59 132.579 31.08C133.186 31.5467 133.944 31.78 134.854 31.78C135.741 31.78 136.499 31.5583 137.129 31.115C137.783 30.6483 138.203 30.03 138.389 29.26C138.413 29.2133 138.424 29.155 138.424 29.085C138.448 29.0617 138.459 29.0267 138.459 28.98C138.529 28.7 138.693 28.5833 138.949 28.63L142.099 29.12C142.216 29.1433 142.309 29.2017 142.379 29.295C142.473 29.365 142.508 29.47 142.484 29.61C142.414 29.9833 142.356 30.2517 142.309 30.415C141.866 31.9083 140.968 33.0983 139.614 33.985C138.261 34.8483 136.674 35.28 134.854 35.28ZM152.818 16.835C154.288 16.835 155.583 17.0917 156.703 17.605C157.823 18.1183 158.687 18.83 159.293 19.74C159.9 20.6267 160.203 21.6417 160.203 22.785V34.58C160.203 34.6967 160.157 34.8017 160.063 34.895C159.993 34.965 159.9 35 159.783 35H156.563C156.447 35 156.342 34.965 156.248 34.895C156.178 34.8017 156.143 34.6967 156.143 34.58V33.46C156.143 33.39 156.12 33.355 156.073 33.355C156.027 33.3317 155.98 33.3433 155.933 33.39C154.79 34.65 153.133 35.28 150.963 35.28C149.213 35.28 147.767 34.8367 146.623 33.95C145.503 33.0633 144.943 31.745 144.943 29.995C144.943 28.175 145.573 26.7633 146.833 25.76C148.117 24.7333 149.913 24.22 152.223 24.22H155.968C156.085 24.22 156.143 24.1617 156.143 24.045V23.205C156.143 22.295 155.875 21.595 155.338 21.105C154.802 20.5917 153.997 20.335 152.923 20.335C152.037 20.335 151.313 20.4983 150.753 20.825C150.217 21.1283 149.878 21.56 149.738 22.12C149.668 22.4 149.505 22.5167 149.248 22.47L145.853 22.05C145.737 22.0267 145.632 21.9917 145.538 21.945C145.468 21.875 145.445 21.7933 145.468 21.7C145.655 20.2767 146.413 19.11 147.743 18.2C149.097 17.29 150.788 16.835 152.818 16.835ZM151.978 32.06C153.122 32.06 154.102 31.7567 154.918 31.15C155.735 30.5433 156.143 29.7733 156.143 28.84V27.195C156.143 27.0783 156.085 27.02 155.968 27.02H153.028C151.792 27.02 150.812 27.2533 150.088 27.72C149.388 28.1867 149.038 28.8517 149.038 29.715C149.038 30.4617 149.307 31.045 149.843 31.465C150.403 31.8617 151.115 32.06 151.978 32.06ZM172.609 16.905C173.356 16.905 174.009 17.0567 174.569 17.36C174.756 17.4533 174.826 17.6283 174.779 17.885L174.184 21.035C174.161 21.315 173.998 21.3967 173.694 21.28C173.344 21.1633 172.936 21.105 172.469 21.105C172.166 21.105 171.933 21.1167 171.769 21.14C170.789 21.1867 169.973 21.5367 169.319 22.19C168.666 22.82 168.339 23.6483 168.339 24.675V34.58C168.339 34.6967 168.293 34.8017 168.199 34.895C168.129 34.965 168.036 35 167.919 35H164.699C164.583 35 164.478 34.965 164.384 34.895C164.314 34.8017 164.279 34.6967 164.279 34.58V17.535C164.279 17.4183 164.314 17.325 164.384 17.255C164.478 17.1617 164.583 17.115 164.699 17.115H167.919C168.036 17.115 168.129 17.1617 168.199 17.255C168.293 17.325 168.339 17.4183 168.339 17.535V19.11C168.339 19.2033 168.351 19.2617 168.374 19.285C168.421 19.285 168.468 19.25 168.514 19.18C169.494 17.6633 170.859 16.905 172.609 16.905ZM192.182 24.045C192.275 24.6283 192.322 25.2817 192.322 26.005L192.287 27.09C192.287 27.37 192.147 27.51 191.867 27.51H180.912C180.795 27.51 180.737 27.5683 180.737 27.685C180.807 28.455 180.912 28.98 181.052 29.26C181.612 30.94 182.977 31.7917 185.147 31.815C186.733 31.815 187.993 31.1617 188.927 29.855C189.02 29.715 189.137 29.645 189.277 29.645C189.37 29.645 189.452 29.68 189.522 29.75L191.692 31.535C191.902 31.6983 191.937 31.885 191.797 32.095C191.073 33.1217 190.105 33.915 188.892 34.475C187.702 35.035 186.372 35.315 184.902 35.315C183.082 35.315 181.53 34.9067 180.247 34.09C178.987 33.2733 178.065 32.13 177.482 30.66C176.945 29.4 176.677 27.65 176.677 25.41C176.677 24.0567 176.817 22.96 177.097 22.12C177.563 20.4867 178.438 19.2033 179.722 18.27C181.028 17.3133 182.592 16.835 184.412 16.835C189.008 16.835 191.598 19.2383 192.182 24.045ZM184.412 20.335C183.548 20.335 182.825 20.5567 182.242 21C181.682 21.42 181.285 22.015 181.052 22.785C180.912 23.1817 180.818 23.695 180.772 24.325C180.725 24.4417 180.772 24.5 180.912 24.5H188.017C188.133 24.5 188.192 24.4417 188.192 24.325C188.145 23.7417 188.075 23.2983 187.982 22.995C187.772 22.155 187.352 21.5017 186.722 21.035C186.115 20.5683 185.345 20.335 184.412 20.335Z" fill="#30B2D2"/>
<g clip-path="url(#clip0_3010_53)">
<path d="M38.0451 25.0792C38.0372 25.087 38.0704 25.0792 37.9458 25.0792C36.6325 25.0792 35.7247 26.2971 36.1824 27.432C35.962 27.6643 36.9132 26.7135 20.8269 42.7155C20.6073 42.9343 20.3099 43.0571 19.9999 43.0571C19.6899 43.0571 19.3926 42.9343 19.1729 42.7155C3.09162 26.7176 4.04015 27.6666 3.81753 27.432C4.2934 26.2521 3.2986 25.0161 1.95643 25.0816L1.95487 25.0793C0.623641 22.9992 -0.0445903 20.7426 0.0023086 18.4266C0.184042 9.33642 11.2766 2.63387 20 10.2638C28.7184 2.63809 39.8159 9.33166 39.9977 18.4266C40.0446 20.7426 39.3763 22.9992 38.0451 25.0792Z" fill="#002935"/>
<path d="M38.0451 25.0794C38.0373 25.0872 38.0705 25.0794 37.9459 25.0794C36.6325 25.0794 35.7247 26.2973 36.1825 27.4321C35.962 27.6644 36.9132 26.7136 20.827 42.7157C20.6075 42.9347 20.31 43.0575 20 43.0573V10.264C25.4304 5.51425 32.2059 6.12089 36.5217 10.4352C40.3594 14.2729 41.2439 20.0813 38.0451 25.0794Z" fill="#30B2D2"/>
<path d="M38.0453 25.0794C37.527 25.89 36.908 26.674 36.1904 27.4244H27.504C27.0726 27.4244 26.6763 27.1875 26.4715 26.8077L23.194 20.7202L18.5589 30.5056C18.1664 31.3341 17.0063 31.4151 16.5102 30.633L13.1514 25.3553L12.251 26.8553C12.1469 27.0289 11.9995 27.1726 11.8234 27.2723C11.6472 27.372 11.4482 27.4244 11.2458 27.4243H3.80993C3.09238 26.6739 2.47331 25.8899 1.95508 25.0793H10.5821L12.1165 22.5218C12.5602 21.7806 13.6391 21.7541 14.1105 22.496L17.3481 27.583L22.0669 17.6209C22.48 16.7522 23.7033 16.7227 24.1594 17.5669L28.2044 25.0793H38.0453V25.0794Z" fill="#E1F3FF"/>
<path d="M24.1592 17.5668C23.704 16.7243 22.4805 16.7506 22.0667 17.6207L20 21.9837V27.4626L23.1938 20.72L26.4713 26.8075C26.5717 26.9939 26.7207 27.1496 26.9025 27.2582C27.0843 27.3668 27.2921 27.4241 27.5038 27.4242H36.1903C36.9078 26.6738 37.5269 25.8898 38.0451 25.0792H28.2042L24.1592 17.5668Z" fill="white"/>
</g>
<defs>
<clipPath id="clip0_3010_53">
<rect width="40" height="40" fill="white" transform="translate(0 5)"/>
</clipPath>
</defs>
</svg>
