<svg width="244" height="650" viewBox="0 0 244 650" fill="none" xmlns="http://www.w3.org/2000/svg">
<path opacity="0.122" fill-rule="evenodd" clip-rule="evenodd" d="M41.7184 650.003L81.1984 649.961L100.908 615.891L81.1254 581.876L41.6454 581.919L37.4044 589.248L36.4054 587.529L31.3784 587.535L28.8694 591.872L31.3874 596.205L33.3804 596.203L21.9404 615.976L41.7184 650.003ZM29.0054 591.872L31.4464 587.652L36.3384 587.646L37.3374 589.365L33.4484 596.086L31.4554 596.088L29.0054 591.872ZM37.8724 590.286L38.7884 591.861L36.3474 596.083L34.5184 596.085L37.8724 590.286ZM34.4504 596.202L36.4154 596.2L38.9254 591.861L37.9404 590.169L42.1814 582.84L80.5914 582.798L99.8384 615.892L80.6634 649.041L42.2524 649.081L23.0094 615.974L34.4504 596.202ZM107.812 593.508L115.016 593.501L118.612 587.287L115.003 581.077L107.799 581.085L104.203 587.302L107.812 593.508ZM114.906 581.245L118.417 587.287L114.918 593.333L107.909 593.34L104.397 587.302L107.896 581.253L114.906 581.245ZM143.478 587.69L149.298 587.684L152.201 582.664L149.286 577.648L143.466 577.654L140.561 582.676L143.478 587.69ZM111.259 569.597L130.247 536.766L111.188 503.976L73.1413 504.017L71.2884 507.217L60.8883 489.334L21.4084 489.377L1.70435 523.434L21.4824 557.462L60.9604 557.42L63.5274 552.984L73.2104 569.638L111.259 569.597ZM60.4264 556.499L22.0154 556.539L2.77335 523.432L21.9434 490.298L60.3553 490.257L70.7553 508.139L54.1454 536.847L62.9924 552.063L60.4264 556.499ZM72.8194 511.687L79.6023 523.35L65.0473 548.51L58.2644 536.843L72.8194 511.687ZM65.5834 549.43L80.6723 523.349L73.3523 510.766L75.2034 507.567L109.133 507.53L126.129 536.77L109.196 566.048L75.2674 566.085L65.5834 549.43ZM62.6094 494.889L61.0604 492.227L57.9704 492.23L56.4284 494.895L57.9764 497.56L61.0664 497.556L62.6094 494.889ZM159.565 481.764L180.136 446.196L159.594 410.86L162.28 410.857L167.019 402.666L183.64 402.649L198.824 376.396L183.582 350.171L157.89 350.199L139.357 318.318L142.042 318.315L148.807 306.625L150.533 309.597L176.948 309.569L179.722 304.772L180.338 305.832L218.955 305.79L238.228 272.469L218.883 239.186L206.662 239.199L209.766 233.833L197.014 211.894L171.557 211.922L162.035 228.377L158.584 222.44L148.827 222.45L136.492 201.229L137.247 199.925L103.46 141.801L97.9483 141.807L105.085 129.471L97.4563 116.347L121.327 116.322L140.216 83.666L141.733 86.281L145.466 86.277L147.328 83.055L145.459 79.838L142.427 79.84L154.988 58.122L121.204 -0.00101238L53.7573 0.0709906L20.0963 58.266L42.7163 97.182L23.9903 129.557L33.5883 146.069L2.35434 200.069L36.1393 258.196L50.8273 258.181L59.3963 272.922L45.0813 272.937L15.4623 324.147L45.1923 375.293L89.9573 375.245L98.1063 389.266L119.181 389.243L131.656 410.707L118.266 410.721L104.436 434.632L90.9533 411.434L52.9033 411.475L33.9083 444.305L52.9754 477.096L91.0224 477.056L103.272 455.877L118.343 481.808L159.565 481.764ZM147.228 83.055L145.416 86.19L141.783 86.194L140.266 83.579L142.378 79.928L145.409 79.925L147.228 83.055ZM142.567 66.982L135.278 66.989L131.403 60.324L135.264 53.652L142.996 53.644L146.648 59.926L142.567 66.982ZM27.3993 58.259L57.4153 6.36199L117.559 6.29899L147.687 58.13L147.116 59.116L143.465 52.834L134.793 52.843L130.463 60.325L134.81 67.8L142.099 67.792L117.671 110.029L93.7993 110.055L84.7733 94.527L48.5023 94.566L27.3993 58.259ZM49.2733 95.894L84.0043 95.856L92.2583 110.057L57.5273 110.094L49.2733 95.894ZM25.5313 129.556L43.4873 98.51L53.8823 116.394L95.9163 116.349L103.544 129.473L96.4083 141.809L36.0143 141.873L34.3563 144.74L25.5313 129.556ZM153.621 401.971L142.761 383.286L156.835 358.952L161.81 358.946L176.687 384.527L166.603 401.957L153.621 401.971ZM137.968 376.461L141.79 383.036L138.769 388.261L119.447 388.281L117.303 384.591L132.12 358.978L148.09 358.961L137.968 376.461ZM148.913 358.96L155.719 358.953L142.202 382.325L138.793 376.46L148.913 358.96ZM198.001 376.396L183.227 401.939L167.429 401.956L177.514 384.527L162.223 358.234L157.246 358.239L159.898 353.655L158.303 350.908L183.172 350.882L198.001 376.396ZM149.326 358.248L153.567 350.913L157.186 350.909L158.784 353.656L156.131 358.24L149.326 358.248ZM111.938 317.635L97.0663 292.049L102.468 282.711L108.535 282.705L128.829 317.617L111.938 317.635ZM107.731 281.32L103.27 281.325L105.497 277.476L107.731 281.32ZM106.299 276.09L111.883 266.436L132.262 266.414L123.652 281.303L109.337 281.318L106.299 276.09ZM141.63 317.604L130.436 317.616L110.142 282.703L124.456 282.687L133.869 266.413L141.574 266.404L145.356 272.908L137.301 286.831L148.393 305.914L141.63 317.604ZM145.768 272.195L141.987 265.692L134.281 265.7L145.534 246.245L158.61 246.231L162.307 239.839L171.134 255.018L165.923 264.028L150.484 264.044L145.768 272.195ZM176.542 264.633L189.42 286.774L181.451 300.55L165.174 272.547L169.747 264.64L176.542 264.633ZM145.714 273.523L156.451 291.986L148.75 305.297L138.015 286.829L145.714 273.523ZM176.59 308.953L150.89 308.98L149.163 306.009L157.276 291.985L146.126 272.811L150.842 264.66L165.566 264.644L160.993 272.552L179.365 304.157L176.59 308.953ZM234.049 272.473L216.861 302.187L182.425 302.225L181.809 301.166L190.135 286.774L176.899 264.016L170.103 264.023L174.846 255.823L197.062 255.8L204.577 242.806L216.797 242.793L234.049 272.473ZM176.221 253.445L182.361 242.83L201.821 242.809L195.681 253.424L176.221 253.445ZM172.937 214.296L195.639 214.272L207.01 233.836L203.907 239.202L180.266 239.227L172.509 252.64L163.682 237.461L165.495 234.33L163.416 230.752L172.937 214.296ZM162.936 236.174L161.603 233.885L162.669 232.041L164.001 234.331L162.936 236.174ZM161.29 229.666L158.847 233.888L161.559 238.552L157.862 244.944L146.279 244.957L154.075 231.478L149.575 223.737L157.839 223.728L161.29 229.666ZM145.117 244.192L139.4 234.357L145.539 223.741L147.969 223.738L152.469 231.48L145.117 244.192ZM129.945 199.933L99.9283 251.832L48.7763 251.887L36.9863 231.603L65.8033 181.779L119.359 181.723L129.945 199.933ZM39.6723 148.165L92.7653 148.108L84.0763 163.129L45.0703 163.171L38.0143 151.032L39.6723 148.165ZM9.65534 200.061L37.2443 152.361L44.3003 164.5L84.8473 164.456L94.3043 148.106L99.8173 148.101L118.555 180.338L64.9983 180.396L35.3793 231.605L47.1703 251.888L39.7833 251.896L9.65534 200.061ZM104.43 272.874L61.0023 272.92L52.4333 258.179L103.586 258.124L135.69 202.615L147.221 222.452L144.791 222.454L137.908 234.359L144.371 245.48L132.675 265.702L111.47 265.724L105.885 275.379L104.43 272.874ZM103.627 274.26L105.083 276.765L102.445 281.326L65.9113 281.365L61.8053 274.304L103.627 274.26ZM17.0693 324.145L45.8863 274.321L60.2003 274.306L65.1093 282.751L101.642 282.712L96.2403 292.05L111.42 318.165L98.0303 318.179L77.4593 353.742L89.1533 373.861L45.9933 373.907L17.0693 324.145ZM129.696 319.108L132.552 324.022L103.735 373.845L90.2693 373.86L78.5753 353.741L98.5883 319.141L129.696 319.108ZM91.0733 375.244L104.54 375.229L134.158 324.02L131.302 319.106L138.694 319.098L156.774 350.2L153.155 350.204L148.502 358.249L131.706 358.267L116.478 384.592L118.622 388.282L98.6643 388.303L91.0733 375.244ZM120.006 389.242L139.328 389.222L142.35 383.997L153.211 402.681L166.192 402.667L161.865 410.145L132.174 410.177L120.006 389.242ZM88.9593 473.506L55.0303 473.542L38.0273 444.301L54.9673 415.025L88.8963 414.989L102.381 438.186L97.6963 446.284L101.208 452.327L88.9593 473.506ZM102.939 439.147L105.892 444.229L101.765 451.365L98.8113 446.283L102.939 439.147ZM103.828 454.915L110.011 444.224L104.995 435.594L118.825 411.683L158.931 411.64L179.019 446.197L159.006 480.803L118.9 480.845L103.828 454.915ZM141.559 427.874L139.308 424.004L134.819 424.009L132.579 427.884L134.828 431.753L139.317 431.748L141.559 427.874ZM133.066 427.883L135.062 424.428L139.067 424.424L141.073 427.874L139.074 431.33L135.069 431.334L133.066 427.883ZM75.4003 427.615L71.6373 421.143L64.1263 421.151L60.3773 427.631L64.1393 434.106L71.6513 434.098L75.4003 427.615ZM60.5803 427.631L64.2273 421.326L71.5354 421.319L75.1953 427.615L71.5494 433.923L64.2403 433.931L60.5803 427.631ZM144.854 220.559L143.296 217.877L140.183 217.881L138.628 220.566L140.19 223.248L143.302 223.244L144.854 220.559ZM138.966 220.566L140.352 218.171L143.127 218.168L144.517 220.559L143.133 222.954L140.357 222.957L138.966 220.566ZM42.3733 402.347L40.8243 399.684L37.7343 399.688L36.1913 402.354L37.7393 405.018L40.8303 405.014L42.3733 402.347ZM15.0093 335.073L11.2473 328.602L3.73634 328.61L-0.0136572 335.088L3.74934 341.564L11.2603 341.556L15.0093 335.073ZM0.191343 335.088L3.83734 328.785L11.1453 328.777L14.8053 335.073L11.1593 341.382L3.85134 341.389L0.191343 335.088ZM202.726 23.904L162.486 23.947L149.197 1.08199L144.312 1.08799L160.048 28.162L205.174 28.114L220.852 1.00598L215.967 1.01098L202.726 23.904ZM214.891 31.5L219.513 39.453L228.742 39.443L233.349 31.48L228.725 23.525L219.496 23.535L214.891 31.5ZM232.349 31.481L228.241 38.582L220.012 38.591L215.889 31.499L219.997 24.396L228.227 24.387L232.349 31.481ZM138.348 129.898L124.554 129.913L117.671 141.817L124.579 153.704L138.374 153.689L145.257 141.788L138.348 129.898ZM137.626 152.402L125.325 152.416L119.164 141.816L125.303 131.2L137.603 131.186L143.764 141.789L137.626 152.402ZM165.534 165.145L170.56 165.14L173.069 160.803L170.551 156.472L165.947 156.477L168.046 152.849L163.701 145.376L155.031 145.385L150.7 152.867L155.047 160.341L163.295 160.333L163.016 160.814L165.534 165.145ZM151.639 152.866L155.5 146.194L163.233 146.186L167.106 152.85L163.247 159.523L155.515 159.532L151.639 152.866ZM163.431 160.333L163.717 160.332L165.879 156.594L170.483 156.59L172.933 160.803L170.492 165.023L165.602 165.029L163.152 160.814L163.431 160.333ZM159.832 91.575L179.723 125.795L204.167 125.768L200.552 132.017L210.708 149.49L201.75 149.5L187.986 173.294L201.802 197.061L229.381 197.032L243.144 173.235L229.401 149.592L231.198 149.59L241.39 131.974L231.159 114.381L226.005 114.386L239.249 91.49L219.357 57.269L179.649 57.311L159.832 91.575ZM242.399 173.236L229.008 196.389L202.173 196.417L188.732 173.293L202.124 150.143L228.958 150.115L242.399 173.236ZM240.838 131.974L230.921 149.114L211.055 149.136L201.105 132.016L204.719 125.768L219.43 125.752L225.729 114.864L230.884 114.858L240.838 131.974ZM205.257 124.841L211.019 114.879L224.654 114.865L218.892 124.826L205.257 124.841ZM238.174 91.491L224.93 114.388L210.742 114.403L204.703 124.841L180.259 124.867L160.907 91.574L180.188 58.237L218.82 58.196L238.174 91.491ZM228.914 84.189L229.957 85.983L232.041 85.981L233.079 84.184L232.036 82.39L229.953 82.392L228.914 84.189ZM232.855 84.185L231.927 85.786L230.069 85.788L229.139 84.188L230.066 82.586L231.923 82.584L232.855 84.185ZM160.374 205.818L161.411 207.6L163.479 207.598L164.512 205.813L163.474 204.033L161.407 204.035L160.374 205.818ZM224.867 222.9L226.371 225.488L229.375 225.485L230.874 222.894L229.369 220.304L226.365 220.308L224.867 222.9ZM230.548 222.894L229.211 225.205L226.532 225.207L225.191 222.9L226.527 220.587L229.206 220.585L230.548 222.894ZM236.218 291.094L238.17 294.449L242.064 294.445L244.007 291.086L242.057 287.731L238.163 287.735L236.218 291.094ZM158.867 313.108L160.426 315.79L163.539 315.787L165.091 313.101L163.533 310.42L160.42 310.423L158.867 313.108ZM164.755 313.101L163.37 315.495L160.594 315.499L159.202 313.107L160.588 310.713L163.364 310.71L164.755 313.101ZM205.88 329.563L208.295 333.715L213.115 333.71L215.521 329.552L213.106 325.397L208.285 325.403L205.88 329.563ZM215.39 329.553L213.049 333.597L208.36 333.602L206.009 329.562L208.352 325.515L213.04 325.51L215.39 329.553ZM160.518 329.714L157.155 329.718L155.476 332.62L157.161 335.519L160.524 335.515L162.204 332.613L160.518 329.714ZM157.206 335.44L155.567 332.62L157.2 329.796L160.473 329.793L162.112 332.613L160.479 335.437L157.206 335.44ZM223.697 365.385L226.634 370.44L232.498 370.434L235.424 365.373L232.486 360.32L226.624 360.326L223.697 365.385ZM234.79 365.373L232.18 369.886L226.952 369.892L224.33 365.385L226.941 360.873L232.17 360.868L234.79 365.373ZM204.091 401.798L209.582 411.243L220.541 411.231L226.01 401.775L220.52 392.329L209.562 392.341L204.091 401.798ZM224.824 401.776L219.947 410.208L210.174 410.219L205.279 401.797L210.156 393.363L219.928 393.353L224.824 401.776ZM164.093 414.06L165.294 416.126L167.693 416.123L168.889 414.054L167.688 411.986L165.29 411.989L164.093 414.06ZM168.824 414.054L167.66 416.067L165.327 416.07L164.158 414.06L165.323 412.045L167.656 412.043L168.824 414.054ZM125.633 503.581L128.548 508.595L134.367 508.588L137.272 503.568L134.356 498.552L128.537 498.559L125.633 503.581ZM152.816 520.425L155.065 524.295L159.554 524.29L161.795 520.416L159.546 516.546L155.056 516.551L152.816 520.425ZM161.309 520.416L159.311 523.871L155.307 523.875L153.303 520.425L155.299 516.97L159.303 516.966L161.309 520.416ZM130.832 640.844L135.223 648.398L143.986 648.389L148.359 640.825L143.97 633.272L135.207 633.282L130.832 640.844ZM147.411 640.825L143.511 647.571L135.696 647.58L131.78 640.842L135.682 634.1L143.496 634.091L147.411 640.825Z" fill="#FF4880"/>
</svg>
