<svg width="683" height="683" viewBox="0 0 683 683" fill="none" xmlns="http://www.w3.org/2000/svg">
<g clip-path="url(#clip0_1002_41)">
<path d="M545.109 418.239C545.125 418.27 545.141 418.301 545.151 418.327C547.417 423.4 552.224 426.374 557.323 426.374C559.146 426.374 561.005 425.994 562.797 425.197C569.62 422.166 572.568 414.39 569.516 407.494C566.469 400.598 558.729 397.551 551.896 400.556C545.062 403.567 542.083 411.332 545.109 418.239Z" fill="#002935"/>
<path d="M581.896 457.098C580.75 449.827 573.922 444.859 566.646 446.015C559.375 447.161 554.411 453.989 555.562 461.265C558.552 480.207 559.375 499.515 558 518.645C554.812 562.994 532.396 603.468 496.495 629.697L487.479 636.28C469.818 649.181 448.927 655.999 427.057 655.999C419.141 655.999 411.219 655.077 403.521 653.259L368.188 644.915C299.896 628.79 237.605 590.895 192.787 538.212C172.865 514.791 163.881 497.754 156.98 480.207C157.532 478.426 157.73 476.504 157.469 474.53C157.396 473.957 150.834 416.369 232.047 379.4C287.745 354.046 313.802 310.687 322.87 291.994C383.932 300.421 404.948 317.609 406.511 318.958C409.734 322.374 414.182 323.479 418.787 322.437C419.896 322.187 420.995 321.947 422.089 321.718C464.813 312.749 508.88 335.505 526.891 375.801C529.896 382.525 537.781 385.541 544.505 382.536C551.229 379.531 554.239 371.645 551.239 364.921C541.036 342.104 523.88 322.89 502.521 310.124C502.531 310.078 502.552 310.036 502.568 309.989C505.255 301.4 506.615 292.442 506.615 283.369C506.615 281.552 506.542 279.749 506.437 277.958H515.687C523.047 277.958 529.021 271.989 529.021 264.624C529.021 257.26 523.047 251.291 515.687 251.291H500.615C497.187 242.447 492.401 234.276 486.49 227.052L492.526 221.015C497.734 215.807 497.734 207.364 492.526 202.156C487.318 196.953 478.88 196.953 473.672 202.156L466.693 209.135C455.88 201.958 443.417 197.078 430 195.192C447.667 181.062 470.875 174.369 499.156 175.333C502.766 175.468 506.276 174.104 508.88 171.593C511.479 169.083 512.943 165.625 512.943 162.01V111.219C512.943 104.281 507.625 98.505 500.708 97.9321C498.547 97.755 473.578 95.854 441.115 99.7602C426.599 71.6717 406.167 50.8072 382.667 39.2239L392.104 25.1354C396.203 19.0156 394.563 10.7344 388.443 6.64061C382.328 2.54166 374.047 4.17707 369.948 10.2969L356.438 30.4687C350.677 29.4062 344.808 28.8385 338.865 28.8385C335.438 28.8385 332.026 29.0312 328.646 29.3906V13.3333C328.646 5.96874 322.677 0 315.313 0C307.948 0 301.979 5.96874 301.979 13.3333V36.1353C289.469 41.2291 277.62 48.9218 266.797 59.1093C258.698 66.729 251.412 75.5415 245.021 85.3175C240.021 75.453 229.782 68.6665 217.985 68.6665H181.792C165.084 68.6665 151.49 82.2603 151.49 98.9686V235.265C144.782 240.479 138.313 246.588 132.126 253.645C102.897 286.984 97.0788 330.671 97.3445 361.447C97.6465 396.26 106.063 431.749 119.365 454.504C121.376 459.89 123.183 465.082 124.938 470.119C133.902 495.817 142.365 520.093 172.475 555.489C220.948 612.473 288.276 653.447 362.063 670.868L397.391 679.212C407.099 681.504 417.078 682.665 427.057 682.665C454.62 682.665 480.953 674.072 503.203 657.816L512.219 651.233C554.469 620.369 580.849 572.744 584.599 520.556C586.12 499.4 585.208 478.051 581.896 457.098ZM419.188 295.109C413.813 291.369 404.651 286.041 390.333 280.697C391.438 267.864 395.162 243.682 407.682 221.755C410.927 221.244 414.24 220.974 417.547 220.974C451.953 220.974 479.948 248.968 479.948 283.374C479.948 288.671 479.276 293.9 477.974 298.968C459.047 292.833 438.776 291.453 419.188 295.109ZM486.276 124.073V148.739C453.245 150.172 425.995 161.203 405.13 181.609C375.828 210.281 366.99 250.109 364.339 272.739C351.584 269.557 336.438 266.687 318.516 264.546C314.464 260.791 310.427 257.25 306.407 253.906C306.427 253.583 306.453 253.265 306.453 252.937C306.453 217.125 318.026 188.291 340.844 167.244C384.24 127.219 457.401 123.791 486.276 124.073ZM338.865 55.5051C345.547 55.5051 352.13 56.4895 358.537 58.3593C358.542 58.3593 358.552 58.3645 358.557 58.3645C379.807 64.5728 399.057 80.703 413.198 104.401C382.203 111.083 348.667 123.786 322.844 147.567C298.256 170.208 284.11 199.625 280.641 235.182C269.73 228.411 258.933 223.208 248.287 219.599V142.5C248.516 141.963 248.73 141.416 248.896 140.843C263.599 89.8019 299.756 55.5051 338.865 55.5051ZM178.157 98.9686C178.157 96.9634 179.787 95.3331 181.792 95.3331H217.985C219.99 95.3331 221.62 96.9634 221.62 98.9686V213.859C217.152 213.468 212.719 213.364 208.313 213.562C197.881 214.026 187.818 216.161 178.157 219.921V98.9686ZM152.178 271.229C169.412 251.567 188.698 241.13 209.5 240.203C236.026 239.015 266.547 253.432 298.026 281.953C289.886 297.927 267.235 334.083 221 355.13C169.975 378.353 148.193 409.864 138.902 432.202C138.745 432.582 138.6 432.952 138.443 433.327C121.589 395.989 112.527 316.453 152.178 271.229Z" fill="#002935"/>
<path d="M266.428 536.223C260.761 531.52 252.355 532.306 247.652 537.973C242.954 543.64 243.735 552.046 249.402 556.744C285.469 586.671 328.667 608.181 374.318 618.962C375.349 619.207 376.38 619.322 377.396 619.322C383.438 619.322 388.912 615.186 390.36 609.051C392.052 601.884 387.615 594.702 380.448 593.009C338.776 583.171 299.349 563.53 266.428 536.223Z" fill="#002935"/>
<path d="M214.49 502.181C208.922 507.004 208.292 515.385 213.11 520.947C215.751 524.114 219.542 525.744 223.365 525.744C226.376 525.744 229.402 524.733 231.891 522.655C237.547 517.942 238.313 509.536 233.6 503.879L233.329 503.562C228.506 497.994 220.053 497.359 214.49 502.181Z" fill="#002935"/>
</g>
<defs>
<clipPath id="clip0_1002_41">
<rect width="682.667" height="682.667" fill="white"/>
</clipPath>
</defs>
</svg>
