<svg width="20" height="20" viewBox="0 0 20 20" fill="none" xmlns="http://www.w3.org/2000/svg">
<mask id="mask0_562_5032" style="mask-type:alpha" maskUnits="userSpaceOnUse" x="0" y="0" width="20" height="20">
<rect width="20" height="20" fill="#D9D9D9"/>
</mask>
<g mask="url(#mask0_562_5032)">
<path d="M1.66602 18.3337V3.33366C1.66602 2.87533 1.82935 2.48283 2.15602 2.15616C2.48213 1.83005 2.87435 1.66699 3.33268 1.66699H16.666C17.1243 1.66699 17.5168 1.83005 17.8435 2.15616C18.1696 2.48283 18.3327 2.87533 18.3327 3.33366V13.3337C18.3327 13.792 18.1696 14.1845 17.8435 14.5112C17.5168 14.8373 17.1243 15.0003 16.666 15.0003H4.99935L1.66602 18.3337ZM3.33268 14.3128L4.31185 13.3337H16.666V3.33366H3.33268V14.3128Z" fill="#0CB8B6"/>
</g>
</svg>
