<svg width="20" height="20" viewBox="0 0 20 20" fill="none" xmlns="http://www.w3.org/2000/svg">
<mask id="mask0_562_3161" style="mask-type:alpha" maskUnits="userSpaceOnUse" x="0" y="0" width="20" height="20">
<rect width="20" height="20" fill="#D9D9D9"/>
</mask>
<g mask="url(#mask0_562_3161)">
<path d="M1.66797 17.4262V2.42773C1.66797 1.96944 1.8313 1.57698 2.15797 1.25035C2.48408 0.92427 2.8763 0.76123 3.33464 0.76123H16.668C17.1263 0.76123 17.5188 0.92427 17.8455 1.25035C18.1716 1.57698 18.3346 1.96944 18.3346 2.42773V12.4267C18.3346 12.885 18.1716 13.2775 17.8455 13.6041C17.5188 13.9302 17.1263 14.0932 16.668 14.0932H5.0013L1.66797 17.4262ZM3.33464 13.4058L4.3138 12.4267H16.668V2.42773H3.33464V13.4058Z" fill="#FF4880"/>
</g>
</svg>
