<svg width="20" height="20" viewBox="0 0 20 20" fill="none" xmlns="http://www.w3.org/2000/svg">
<mask id="mask0_562_1669" style="mask-type:alpha" maskUnits="userSpaceOnUse" x="0" y="-1" width="20" height="21">
<rect y="-0.00366211" width="20" height="20" fill="#D9D9D9"/>
</mask>
<g mask="url(#mask0_562_1669)">
<path d="M1.66602 18.33V3.33C1.66602 2.87166 1.82935 2.47916 2.15602 2.1525C2.48213 1.82639 2.87435 1.66333 3.33268 1.66333H16.666C17.1243 1.66333 17.5168 1.82639 17.8435 2.1525C18.1696 2.47916 18.3327 2.87166 18.3327 3.33V13.33C18.3327 13.7883 18.1696 14.1808 17.8435 14.5075C17.5168 14.8336 17.1243 14.9967 16.666 14.9967H4.99935L1.66602 18.33ZM3.33268 14.3092L4.31185 13.33H16.666V3.33H3.33268V14.3092Z" fill="#0957DE"/>
</g>
</svg>
