<svg width="450" height="512" viewBox="0 0 450 512" fill="none" xmlns="http://www.w3.org/2000/svg">
<path d="M-0.00878906 30H29.9912V281.001L89.9952 361.006V512H119.995V361.006L179.999 281.001V30H209.999V0H-0.00878906V30ZM59.9912 261.001V190.995H149.999V261.001H59.9912ZM134.999 291.001L104.995 331.006L74.9912 291.001H134.999ZM149.999 160.995H59.9912V30H149.999V160.995Z" fill="#002935"/>
<path d="M450.009 0H240.001V30H270.001V281.001L330.005 361.006V512H360.005V361.006L420.009 281.001V30H450.009V0ZM300.001 261.001V190.995H390.009V261.001H300.001ZM375.009 291.001L345.005 331.006L315.001 291.001H375.009ZM390.009 160.995H300.001V30H390.009V160.995Z" fill="#002935"/>
</svg>
