<svg width="481" height="481" viewBox="0 0 481 481" fill="none" xmlns="http://www.w3.org/2000/svg">
<g clip-path="url(#clip0_1002_49)">
<path d="M341.311 0.000196669C335.062 0.0111967 328.823 0.500197 322.649 1.4622C308.161 3.9312 294.2 8.8552 281.369 16.0222C255.675 29.9782 224.663 29.9782 198.969 16.0222C186.134 8.8802 172.173 3.9832 157.689 1.5422C90.7645 -8.8848 28.0585 36.9152 17.6305 103.84C16.6725 109.988 16.1835 116.2 16.1685 122.422V136.022C16.0265 158.307 22.0935 180.191 33.6885 199.222C64.3725 248.855 83.8905 304.571 90.8885 362.502L99.7684 436.022C102.207 458.88 120.009 477.079 142.808 480.022C169.147 483.023 192.932 464.104 195.933 437.764C195.96 437.53 195.985 437.296 196.008 437.062L212.728 280.902C214.367 265.747 227.981 254.791 243.136 256.43C256.03 257.824 266.214 268.008 267.608 280.902L284.328 436.822C286.802 461.441 307.585 480.146 332.328 480.022H333.688C357.597 480.298 378.063 462.936 381.688 439.302L394.088 361.462C403.648 303.717 422.563 247.917 450.088 196.262C459.343 178.674 464.175 159.096 464.168 139.222V122.422C464.048 54.6902 409.043 -0.119803 341.311 0.000196669ZM448.169 139.222C448.123 156.897 443.727 174.288 435.369 189.862C406.96 242.603 387.623 299.747 378.169 358.902L365.689 436.822C363.296 452.599 349.646 464.202 333.689 464.022H332.329C315.806 464.101 301.94 451.587 300.329 435.142L283.609 280.022C281.611 256.025 260.538 238.192 236.541 240.191C215.711 241.926 199.042 258.199 196.809 278.982L180.169 434.262C178.882 448.28 168.815 459.924 155.129 463.222C137.944 467.345 120.67 456.756 116.547 439.57C116.229 438.244 115.996 436.898 115.849 435.542L105.609 350.342C97.8465 293.61 78.0435 239.194 47.5295 190.742C37.5385 174.234 32.2295 155.318 32.1695 136.022V122.422C32.1745 63.6592 79.8164 16.0272 138.579 16.0322C156.629 16.0342 174.383 20.6282 190.168 29.3812C221.239 46.7482 259.097 46.7482 290.168 29.3812V29.4612C341.558 0.963198 406.321 19.5212 434.819 70.9112C443.56 86.6732 448.153 104.397 448.168 122.421V139.222H448.169Z" fill="#002935"/>
<path d="M308.09 65.062C286.999 75.486 263.689 80.621 240.17 80.022C216.598 80.647 193.229 75.512 172.09 65.062C168.245 62.904 163.379 64.264 161.21 68.102C159.052 71.947 160.412 76.813 164.25 78.982C187.769 90.823 213.847 96.676 240.17 96.022C266.493 96.676 292.571 90.823 316.09 78.982C319.934 76.773 321.259 71.866 319.05 68.022C316.841 64.178 311.934 62.853 308.09 65.062Z" fill="#002935"/>
</g>
<defs>
<clipPath id="clip0_1002_49">
<rect width="480.335" height="480.335" fill="white"/>
</clipPath>
</defs>
</svg>
