<svg width="35" height="35" viewBox="0 0 35 35" fill="none" xmlns="http://www.w3.org/2000/svg">
<path d="M31.9238 5.19531H3.07617C1.38346 5.19531 0 6.57269 0 8.27148V26.7285C0 28.4279 1.38435 29.8047 3.07617 29.8047H31.9238C33.6165 29.8047 35 28.4273 35 26.7285V8.27148C35 6.57228 33.6159 5.19531 31.9238 5.19531ZM31.4515 7.24609C30.4569 8.24394 18.7746 19.9644 18.2946 20.4459C17.8937 20.848 17.1065 20.8482 16.7054 20.4459L3.54854 7.24609H31.4515ZM2.05078 26.3515V8.64849L10.8736 17.5L2.05078 26.3515ZM3.54854 27.7539L12.3214 18.9525L15.253 21.8937C16.4543 23.0989 18.5462 23.0984 19.7471 21.8937L22.6787 18.9526L31.4515 27.7539H3.54854ZM32.9492 26.3515L24.1264 17.5L32.9492 8.64849V26.3515Z" fill="#0CB8B6"/>
</svg>
