<svg width="83" height="80" viewBox="0 0 83 80" fill="none" xmlns="http://www.w3.org/2000/svg">
<g clip-path="url(#clip0_3001_37)">
<path d="M37.4357 4.81651C37.4357 5.91802 37.4357 7.01953 37.4357 8.12104C37.4357 9.02817 36.9386 9.58973 36.1821 9.61132C35.4256 9.61132 34.9285 9.07137 34.9068 8.14264C34.8852 5.91802 34.8852 3.6718 34.9068 1.44718C34.9068 0.561647 35.4472 -0.0215063 36.1821 9.19774e-05C36.917 0.0216903 37.3925 0.604844 37.4141 1.51197C37.4574 2.61348 37.4357 3.715 37.4357 4.81651Z" fill="white"/>
<path d="M83.0001 66.5226C82.4382 67.7537 82.0491 69.1144 81.271 70.2159C79.7579 72.3757 77.51 73.3908 74.873 73.4772C73.7707 73.5204 72.6684 73.4988 71.5444 73.4772C71.1553 73.4772 70.9392 73.542 70.8095 73.9956C69.772 77.7105 66.8108 79.9999 63.1147 79.9783C59.5051 79.9567 56.5439 77.6241 55.528 73.974C55.4848 73.8228 55.4199 73.6716 55.3767 73.5204C46.2553 73.5204 37.1556 73.5204 28.0775 73.5204C26.3915 77.9697 24.0355 79.9567 20.3611 79.9999C16.5785 80.0431 14.2441 78.1424 12.4069 73.4988C11.0884 73.4988 9.74831 73.4988 8.38659 73.4988C3.45846 73.4988 -0.0214844 70.0215 -0.0214844 65.0755C-0.0214844 53.7364 -0.0214844 42.3973 -0.0214844 31.0582C-0.0214844 26.069 3.41523 22.6133 8.42982 22.6133C14.5684 22.6133 20.6853 22.6133 26.8238 22.6133C27.148 22.6133 27.4723 22.6133 27.8613 22.6133C28.4017 20.6263 28.9421 18.6392 29.4824 16.6738C30.0228 14.7515 31.2332 13.326 33.2217 13.0453C35.1454 12.7861 37.1772 12.8077 39.1009 13.0453C41.003 13.3044 42.2134 14.6651 42.7754 16.5226C43.359 18.5096 43.8994 20.5183 44.4613 22.5917C46.0608 22.5917 47.6387 22.5917 49.2382 22.5917C50.9889 22.6133 52.7613 22.4621 54.4905 22.6781C58.1866 23.1317 60.802 25.1619 62.3798 28.5096C64.9736 34.082 67.5889 39.6327 70.1395 45.2267C70.4637 45.9178 70.8311 46.1338 71.5876 46.1338C73.2303 46.1338 74.9163 46.0474 76.5158 46.3282C79.8876 46.9329 82.3085 49.6543 82.8272 53.0669C82.8488 53.2828 82.9137 53.4772 82.9785 53.6932C83.0001 57.9913 83.0001 62.2677 83.0001 66.5226ZM59.9806 29.3088C59.7428 28.8984 59.5915 28.596 59.4186 28.3584C57.884 26.1986 55.7658 25.1403 53.1288 25.1403C49.9514 25.1187 46.7525 25.1619 43.5751 25.1187C42.7538 25.0971 42.5376 25.3131 42.5376 26.1554C42.5592 40.7558 42.5592 55.3563 42.5592 69.9567C42.5592 70.2807 42.5592 70.5831 42.5592 70.9502C46.9038 70.9502 51.1186 70.9502 55.3983 70.9502C55.4415 70.799 55.5064 70.6479 55.5496 70.4967C56.5871 66.8466 59.5483 64.4923 63.1363 64.4707C66.7676 64.4492 69.772 66.7818 70.8527 70.4535C70.9176 70.6695 71.2418 70.9502 71.4579 70.9718C72.7332 71.015 74.0085 71.0366 75.2621 70.9718C77.6613 70.8638 79.6715 69.136 80.2335 66.8034C80.3415 66.3498 80.3632 65.8746 80.4064 65.3995C80.1254 65.3779 79.9957 65.3563 79.866 65.3563C78.353 65.3563 76.84 65.3779 75.327 65.3347C74.3111 65.3131 73.8788 64.8811 73.8572 63.9092C73.8356 61.339 73.8356 58.7904 73.8572 56.2202C73.8572 55.3131 74.3111 54.8811 75.1973 54.8595C75.9538 54.8379 76.7103 54.8595 77.4668 54.8595C78.4178 54.8595 79.3905 54.8595 80.3415 54.8595C80.3632 54.6003 80.3848 54.4707 80.4064 54.3412C80.4496 51.2094 77.9639 48.7256 74.7434 48.7256C66.2921 48.704 57.8408 48.7256 49.3895 48.7256C47.6603 48.7256 47.3361 48.4016 47.3361 46.717C47.3361 41.6198 47.3361 36.5226 47.3361 31.4038C47.3361 29.6327 47.6387 29.3304 49.4111 29.3304C52.891 29.3088 56.3277 29.3088 59.9806 29.3088ZM40.0087 25.1619C39.6845 25.1403 39.4251 25.1187 39.1441 25.1187C28.9421 25.1187 18.7184 25.1187 8.51628 25.1187C4.79857 25.1187 2.50742 27.4081 2.50742 31.1446C2.50742 38.8984 2.50742 46.6306 2.48581 54.3844C2.48581 55.1403 2.70195 55.3131 3.43685 55.3131C15.3249 55.2915 27.2129 55.2915 39.1009 55.2915C39.3819 55.2915 39.6845 55.2915 40.0087 55.2915C40.0087 45.2267 40.0087 35.2267 40.0087 25.1619ZM2.59388 57.8185C2.59388 60.7558 2.44258 63.6068 2.63711 66.4578C2.78841 68.6824 4.8418 70.6263 7.08971 70.8422C8.8405 71.015 10.6345 70.8854 12.4501 70.8854C12.515 70.6695 12.5798 70.4319 12.6447 70.2159C13.5741 66.7602 16.6434 64.406 20.2098 64.3844C23.7978 64.3628 26.9535 66.7386 27.8397 70.2375C28.0126 70.8854 28.2936 71.015 28.8772 71.015C32.3139 70.9934 35.729 70.9934 39.1658 70.9934C39.4251 70.9934 39.6845 70.9934 39.9871 70.9934C39.9871 66.5658 39.9871 62.2245 39.9871 57.8401C27.4723 57.8185 15.0439 57.8185 2.59388 57.8185ZM49.9298 46.1122C55.9171 46.1122 61.8178 46.1122 67.7835 46.1122C67.7186 45.9178 67.6754 45.8098 67.6105 45.6803C65.5355 41.231 63.4606 36.8034 61.4072 32.3325C61.2126 31.9006 60.9316 31.8358 60.521 31.8358C57.1923 31.8574 53.8853 31.8358 50.5566 31.8358C50.3405 31.8358 50.146 31.879 49.9298 31.9006C49.9298 36.6522 49.9298 41.339 49.9298 46.1122ZM15.0439 72.2461C15.0655 75.1619 17.4215 77.5593 20.253 77.5593C23.0845 77.5593 25.4405 75.1187 25.4405 72.2245C25.4405 69.3088 23.0197 66.825 20.1882 66.8682C17.3783 66.9114 15.0439 69.352 15.0439 72.2461ZM57.9704 72.2461C57.9921 75.1619 60.348 77.5593 63.1796 77.5593C66.0327 77.5593 68.4319 75.0755 68.3887 72.1597C68.3671 69.2872 65.9246 66.8466 63.1363 66.8682C60.3264 66.9114 57.9704 69.352 57.9704 72.2461ZM30.4983 22.5701C34.3241 22.5701 38.0418 22.5701 41.8676 22.5701C41.3488 20.691 40.8733 18.8768 40.3329 17.0625C40.052 16.1338 39.3387 15.4859 38.4092 15.4427C36.8746 15.3563 35.34 15.4211 33.8053 15.5291C33.0488 15.5939 32.3788 16.0474 32.141 16.7818C31.5574 18.704 31.0387 20.6263 30.4983 22.5701ZM80.3415 62.7645C80.3415 60.9286 80.3415 59.136 80.3415 57.3649C78.9798 57.3649 77.7046 57.3649 76.4077 57.3649C76.4077 59.1792 76.4077 60.9502 76.4077 62.7645C77.7478 62.7645 79.0231 62.7645 80.3415 62.7645Z" fill="white"/>
<path d="M44.3963 11.7279C44.0505 11.404 43.6398 11.1448 43.402 10.7776C43.0778 10.2592 43.3372 9.74089 43.7479 9.33052C45.0015 8.14261 46.2768 6.97631 47.5304 5.81C47.9843 5.37803 48.4166 4.94607 48.8921 4.5573C49.4757 4.08214 50.1242 4.12533 50.6213 4.66529C51.0968 5.18365 51.1184 5.87479 50.5781 6.39315C48.8705 8.03462 47.1197 9.63289 45.3906 11.2312C45.1744 11.4471 44.8286 11.5119 44.3963 11.7279Z" fill="white"/>
<path d="M29.1591 10.3456C28.8781 10.6912 28.662 11.188 28.2945 11.3608C27.9703 11.512 27.3003 11.512 27.0625 11.2744C25.2469 9.6761 23.4745 7.99144 21.7237 6.32837C21.2266 5.85321 21.2482 5.11887 21.6805 4.6437C22.1344 4.12535 22.8693 4.03895 23.4313 4.53571C25.2253 6.17718 26.9977 7.84025 28.7485 9.50332C28.8998 9.6761 28.9646 9.95688 29.1591 10.3456Z" fill="white"/>
<path d="M51.1405 54.8813C50.3623 54.8813 49.5842 54.8813 48.8061 54.8813C47.9415 54.8597 47.4011 54.4062 47.3795 53.6718C47.3579 52.9591 47.8983 52.4191 48.7413 52.3975C50.384 52.3759 52.0267 52.3759 53.6694 52.3975C54.534 52.3975 55.0743 52.9159 55.0527 53.6502C55.0527 54.3846 54.4907 54.8597 53.6478 54.8813C52.8264 54.8813 51.9834 54.8813 51.1405 54.8813Z" fill="white"/>
<path d="M31.6862 40.1943C31.7078 45.7667 27.1255 50.4751 21.6354 50.5183C16.1237 50.5615 11.4766 45.8747 11.4766 40.2375C11.4766 34.6004 16.0589 29.9135 21.5922 29.9351C27.0823 29.9135 31.6862 34.6004 31.6862 40.1943ZM29.3734 40.2375C29.3951 35.8963 25.8719 32.3973 21.5706 32.4189C17.2909 32.4405 13.7893 35.9395 13.8109 40.2159C13.8109 44.4924 17.2693 47.9481 21.5922 47.9913C25.8286 48.0345 29.3518 44.5356 29.3734 40.2375Z" fill="white"/>
<path d="M21.5074 72.2247C21.5074 72.9159 20.9454 73.5422 20.2538 73.5422C19.5621 73.5422 18.9785 72.9591 18.9785 72.2463C18.9785 71.5768 19.5837 70.9288 20.2322 70.9072C20.8806 70.9072 21.5074 71.5336 21.5074 72.2247Z" fill="white"/>
<path d="M64.4335 72.2679C64.4119 72.9807 63.8283 73.5638 63.1583 73.5422C62.4882 73.5206 61.9263 72.9159 61.9479 72.2031C61.9695 71.512 62.5747 70.9072 63.2231 70.9072C63.8716 70.9288 64.4552 71.5768 64.4335 72.2679Z" fill="white"/>
<path d="M22.8474 38.9633C23.7552 38.9633 24.5765 38.9633 25.4195 38.9633C26.4354 38.9633 26.9757 39.3952 26.9974 40.1728C27.019 40.9719 26.4354 41.4255 25.3763 41.4471C24.5765 41.4471 23.7552 41.4471 22.8474 41.4471C22.8474 42.1598 22.869 42.8294 22.8474 43.4773C22.8257 43.9309 22.8041 44.3844 22.6744 44.838C22.5231 45.3996 22.026 45.7235 21.5073 45.5939C21.0966 45.486 20.5778 45.1188 20.4914 44.7732C20.2968 44.0389 20.3617 43.2397 20.3401 42.4622C20.3185 42.1382 20.3401 41.8358 20.3401 41.4687C19.3458 41.4687 18.4596 41.5335 17.5734 41.4471C17.1627 41.4039 16.6656 41.1879 16.4062 40.8855C15.8226 40.1728 16.2981 39.2009 17.2924 39.0281C17.7679 38.9417 18.2651 38.9633 18.7406 38.9633C19.2161 38.9633 19.7132 38.9633 20.3185 38.9633C20.3185 38.6177 20.3185 38.2937 20.3185 37.9482C20.3401 37.2354 20.3185 36.5011 20.4265 35.7883C20.513 35.1404 20.9669 34.8164 21.6369 34.8164C22.2638 34.8164 22.6744 35.1836 22.7609 35.7883C22.8474 36.4147 22.8474 37.0626 22.869 37.7106C22.869 38.0993 22.8474 38.4881 22.8474 38.9633Z" fill="white"/>
</g>
<defs>
<clipPath id="clip0_3001_37">
<rect width="83" height="80" fill="white"/>
</clipPath>
</defs>
</svg>
