<svg width="76" height="80" viewBox="0 0 76 80" fill="none" xmlns="http://www.w3.org/2000/svg">
<g clip-path="url(#clip0_3001_56)">
<path d="M11.7902 4.87757C11.7902 3.69573 11.7902 2.62133 11.7902 1.56841C11.7902 0.472522 12.1997 0.0427607 13.2774 0.0212727C14.9371 -0.00021538 16.5752 -0.000215381 18.2133 -0.000215381C19.2479 -0.000215381 19.679 0.451034 19.7006 1.48246C19.7221 2.57835 19.7006 3.67424 19.7006 4.81311C25.6495 4.81311 31.5338 4.81311 37.5043 4.81311C37.5043 3.71722 37.5043 2.64281 37.5043 1.5899C37.5043 0.429546 37.9139 0.0212727 39.0347 -0.000215381C40.6512 -0.000215381 42.2678 -0.0217034 43.8844 -0.000215381C44.9621 -0.000215381 45.3931 0.451034 45.4147 1.52544C45.4363 2.64281 45.4147 3.78168 45.4147 5.0065C45.7596 5.0065 46.0613 5.0065 46.3415 5.0065C49.4022 5.0065 52.4845 5.0065 55.5452 5.0065C57.9161 5.0065 59.1016 6.05941 59.8991 8.29417C61.1061 11.7323 62.464 15.1274 63.7789 18.5225C67.7448 28.7508 71.7108 38.9791 75.6768 49.2074C76.5174 51.3992 75.569 53.5265 73.4782 54.1067C72.9609 54.2571 72.4221 54.2571 71.8832 54.2571C68.2406 54.2786 64.6195 54.2571 60.9768 54.2571C60.6535 54.2571 60.3517 54.2571 59.9638 54.2571C59.9638 55.3745 59.9638 56.3844 59.9638 57.4158C59.9422 60.1878 58.261 61.8854 55.4805 61.9068C50.7386 61.9068 45.9967 61.9068 41.2547 61.9068C40.9745 61.9068 40.6728 61.9068 40.2848 61.9068C41.772 65.3234 41.9445 68.6971 40.5866 72.0922C39.5951 74.5633 37.9785 76.5187 35.7584 77.9799C31.2536 80.9238 25.3478 80.6444 21.08 77.3997C17.5667 74.7137 14.3551 68.8905 17.4158 61.7779C17.0925 61.7779 16.8123 61.7779 16.5321 61.7779C12.523 61.7779 8.51397 61.7779 4.48334 61.7779C1.63819 61.7779 -0.0214844 60.1233 -0.0214844 57.2654C-0.0214844 41.3213 -0.0214844 25.3557 -0.0214844 9.41155C-0.0214844 6.55364 1.63819 4.89906 4.48334 4.89906C6.8974 4.85608 9.28992 4.87757 11.7902 4.87757ZM57.4204 18.2646C39.0562 18.2646 20.8429 18.2646 2.50035 18.2646C2.50035 18.5869 2.50035 18.8663 2.50035 19.1671C2.50035 31.7806 2.50035 44.4156 2.50035 57.0291C2.50035 58.7911 2.97455 59.2423 4.76354 59.2423C9.18215 59.2423 13.6007 59.2208 18.0194 59.2638C18.7737 59.2638 19.291 59.0919 19.8515 58.5332C24.9167 53.3761 33.2797 53.5265 38.1509 58.8555C38.5174 59.2638 38.8838 59.3927 39.4011 59.3927C44.6819 59.3713 49.9626 59.3927 55.2434 59.3927C56.9677 59.3927 57.4204 58.9415 57.4204 57.1795C57.4204 44.523 57.4204 31.888 57.4204 19.2316C57.4204 18.9308 57.4204 18.6299 57.4204 18.2646ZM2.52191 15.7075C20.8645 15.7075 39.1209 15.7075 57.3988 15.7075C57.3988 13.4943 57.4419 11.3455 57.3773 9.21816C57.3342 7.95036 56.7738 7.49911 55.5021 7.49911C52.3983 7.49911 49.316 7.49911 46.2122 7.49911C45.9536 7.49911 45.6949 7.5206 45.4794 7.54209C45.4363 7.69251 45.4147 7.75697 45.4147 7.79995C45.4147 8.87435 45.4147 9.94875 45.3932 11.0232C45.3932 12.3554 44.9836 12.7637 43.6688 12.7852C42.16 12.7852 40.6512 12.7852 39.1424 12.7852C37.8923 12.7852 37.4828 12.3769 37.4828 11.1521C37.4828 9.92726 37.4828 8.70244 37.4828 7.47763C31.4907 7.47763 25.6064 7.47763 19.679 7.47763C19.679 8.74542 19.679 9.94875 19.679 11.1521C19.679 12.3339 19.2264 12.7637 18.0625 12.7637C16.5106 12.7637 14.9371 12.7637 13.3852 12.7637C12.1997 12.7637 11.7902 12.3339 11.7686 11.1736C11.7686 9.94875 11.7686 8.72393 11.7686 7.43465C9.05282 7.43465 6.40166 7.39167 3.77205 7.45614C2.97455 7.47763 2.50035 8.10078 2.50035 8.87435C2.50035 11.1091 2.52191 13.3653 2.52191 15.7075ZM18.6875 67.3863C18.7091 72.9947 23.2786 77.5501 28.8611 77.5072C34.4867 77.4857 38.9916 72.9302 38.97 67.3004C38.9485 61.7349 34.4221 57.2225 28.8395 57.2225C23.2139 57.2439 18.6875 61.7994 18.6875 67.3863ZM60.0069 51.7215C60.1578 51.743 60.2655 51.7645 60.3733 51.7645C64.3393 51.7645 68.2837 51.7645 72.2496 51.7645C73.3489 51.7645 73.7584 51.1199 73.3274 50.0454C68.995 38.8717 64.641 27.6979 60.3086 16.5241C60.244 16.3522 60.1578 16.2018 60.0069 15.9009C60.0069 27.9128 60.0069 39.7742 60.0069 51.7215ZM17.1141 10.2066C17.1141 7.58507 17.1141 5.07096 17.1141 2.53537C16.1657 2.53537 15.2604 2.53537 14.3551 2.53537C14.3551 5.11394 14.3551 7.64953 14.3551 10.2066C15.3035 10.2066 16.1657 10.2066 17.1141 10.2066ZM40.0477 2.53537C40.0477 5.11394 40.0477 7.62804 40.0477 10.2066C40.9961 10.2066 41.8798 10.2066 42.8282 10.2066C42.8282 7.62804 42.8282 5.11394 42.8282 2.53537C41.8798 2.53537 40.9961 2.53537 40.0477 2.53537Z" fill="white"/>
<path d="M35.7375 28.6652C35.7375 30.3628 35.7375 32.0388 35.7375 33.7364C35.7375 34.9397 35.3495 35.348 34.164 35.348C31.0602 35.348 27.978 35.348 24.8742 35.348C23.7533 35.348 23.3223 34.9182 23.3223 33.7794C23.3223 30.3628 23.3223 26.9676 23.3223 23.551C23.3223 22.4337 23.7749 21.9824 24.9173 21.9824C27.978 21.9824 31.0602 21.9824 34.1209 21.9824C35.3064 21.9824 35.7375 22.4122 35.7375 23.594C35.7375 25.2701 35.7375 26.9676 35.7375 28.6652ZM33.1725 32.8554C33.1725 30.0619 33.1725 27.3115 33.1725 24.5825C30.6938 24.5825 28.3013 24.5825 25.8872 24.5825C25.8872 27.3759 25.8872 30.0834 25.8872 32.8554C28.3228 32.8554 30.6938 32.8554 33.1725 32.8554Z" fill="white"/>
<path d="M6.27148 45.7267C6.27148 43.9862 6.27148 42.2457 6.27148 40.4836C6.27148 39.4522 6.70257 39.0225 7.73717 39.0225C10.8841 39.0225 14.031 39.0225 17.1994 39.0225C18.1909 39.0225 18.6651 39.4522 18.6651 40.4192C18.6867 43.9432 18.6867 47.4458 18.6651 50.9698C18.6651 51.9368 18.1694 52.3665 17.1779 52.388C14.031 52.4095 10.8841 52.4095 7.71561 52.388C6.70257 52.388 6.27148 51.9153 6.27148 50.8839C6.27148 49.1648 6.27148 47.4458 6.27148 45.7267ZM8.79332 49.8095C11.2936 49.8095 13.6861 49.8095 16.1433 49.8095C16.1433 47.0375 16.1433 44.3085 16.1433 41.558C13.6861 41.558 11.2505 41.558 8.79332 41.558C8.79332 44.33 8.79332 47.0375 8.79332 49.8095Z" fill="white"/>
<path d="M35.7375 45.7267C35.7375 47.4243 35.7375 49.1004 35.7375 50.7979C35.7375 51.9153 35.3065 52.388 34.1856 52.388C31.0818 52.388 27.9996 52.388 24.8958 52.388C23.7534 52.388 23.3008 51.9368 23.3008 50.7549C23.3008 47.3813 23.3008 43.9862 23.3008 40.6126C23.3008 39.4307 23.7319 39.001 24.8958 39.001C27.9996 39.001 31.0818 39.001 34.1856 39.001C35.3065 39.001 35.716 39.4307 35.7375 40.5696C35.7375 42.3101 35.7375 44.0077 35.7375 45.7267ZM25.9088 41.5366C25.9088 44.33 25.9088 47.059 25.9088 49.831C28.366 49.831 30.737 49.831 33.1726 49.831C33.1726 47.059 33.1726 44.3085 33.1726 41.5366C30.7154 41.5366 28.3229 41.5366 25.9088 41.5366Z" fill="white"/>
<path d="M40.3926 45.6623C40.3926 43.9432 40.3926 42.2242 40.3926 40.5051C40.3926 39.4307 40.8237 39.001 41.923 39.001C45.0483 39.001 48.1737 39.001 51.2991 39.001C52.3337 39.001 52.7863 39.4307 52.7863 40.4622C52.8078 43.9217 52.8078 47.3813 52.7863 50.8624C52.7863 51.9368 52.3121 52.3665 51.2344 52.388C48.1306 52.388 45.0483 52.388 41.9445 52.388C40.8237 52.388 40.3926 51.9583 40.3711 50.8194C40.3926 49.1004 40.3926 47.3813 40.3926 45.6623ZM50.2429 41.5581C47.7642 41.5581 45.3501 41.5581 42.936 41.5581C42.936 44.3515 42.936 47.059 42.936 49.831C45.3932 49.831 47.8073 49.831 50.2429 49.831C50.2429 47.059 50.2429 44.33 50.2429 41.5581Z" fill="white"/>
<path d="M6.27155 28.6652C6.27155 26.9462 6.27155 25.2271 6.27155 23.5081C6.27155 22.4337 6.70264 21.9824 7.8019 21.9824C10.9273 21.9609 14.0526 21.9609 17.178 21.9824C18.2126 21.9824 18.6652 22.4552 18.6652 23.4651C18.6868 26.9462 18.6868 30.4487 18.6652 33.9298C18.6652 34.9182 18.2126 35.348 17.1995 35.348C14.0526 35.348 10.9057 35.348 7.73724 35.348C6.68108 35.348 6.27155 34.9182 6.25 33.8868C6.27155 32.1463 6.27155 30.4057 6.27155 28.6652ZM16.1218 32.8554C16.1218 30.0404 16.1218 27.3115 16.1218 24.561C13.6646 24.561 11.2506 24.561 8.81495 24.561C8.81495 27.3544 8.81495 30.0834 8.81495 32.8554C11.2721 32.8554 13.6431 32.8554 16.1218 32.8554Z" fill="white"/>
<path d="M40.3926 28.6437C40.3926 26.9462 40.3926 25.2701 40.3926 23.5725C40.3926 22.4337 40.8237 21.9824 41.9229 21.9824C45.0267 21.9609 48.109 21.9609 51.2128 21.9824C52.3336 21.9824 52.7862 22.4337 52.7862 23.5725C52.8078 26.9891 52.7862 30.3843 52.7862 33.8009C52.7862 34.9612 52.3551 35.348 51.2343 35.3695C48.1305 35.3695 45.0483 35.3695 41.9445 35.3695C40.8021 35.3695 40.3926 34.9612 40.3926 33.8223C40.3926 32.0818 40.3926 30.3628 40.3926 28.6437ZM50.2213 32.8554C50.2213 30.0619 50.2213 27.3115 50.2213 24.561C47.7641 24.561 45.35 24.561 42.9144 24.561C42.9144 27.3544 42.9144 30.0834 42.9144 32.8554C45.3716 32.8554 47.7641 32.8554 50.2213 32.8554Z" fill="white"/>
<path d="M26.1458 69.7502C26.62 69.213 26.9649 68.7403 27.396 68.3105C29.3359 66.3551 31.2973 64.3997 33.2803 62.4443C33.97 61.7567 34.7028 61.6922 35.2633 62.2294C35.8021 62.7666 35.7374 63.5187 35.0477 64.2063C32.4397 66.8064 29.8316 69.4064 27.2235 72.0065C26.4045 72.823 25.7794 72.823 24.9388 71.985C23.9258 70.9751 22.9127 69.9866 21.9212 68.9767C21.2315 68.2891 21.1453 67.5585 21.6841 66.9998C22.2445 66.4196 22.9774 66.4841 23.7102 67.2361C24.4862 68.0312 25.2406 68.8263 26.1458 69.7502Z" fill="white"/>
</g>
<defs>
<clipPath id="clip0_3001_56">
<rect width="76" height="80" fill="white"/>
</clipPath>
</defs>
</svg>
