<svg xmlns="http://www.w3.org/2000/svg" viewBox="0 0 64 64" fill="none" stroke="#556db4" stroke-width="2.5" stroke-linecap="round" stroke-linejoin="round">
  <!-- Heart -->
  <path d="M32 54S8 38 8 22a12 12 0 0 1 24-2 12 12 0 0 1 24 2c0 16-24 32-24 32z" fill="#62cbe1" fill-opacity="0.2"/>
  <path d="M32 54S8 38 8 22a12 12 0 0 1 24-2 12 12 0 0 1 24 2c0 16-24 32-24 32z"/>
  <!-- Paw inside heart -->
  <circle cx="27" cy="26" r="2.5" fill="#556db4" stroke="none"/>
  <circle cx="37" cy="26" r="2.5" fill="#556db4" stroke="none"/>
  <circle cx="24" cy="21" r="2" fill="#556db4" stroke="none"/>
  <circle cx="40" cy="21" r="2" fill="#556db4" stroke="none"/>
  <ellipse cx="32" cy="32" rx="4.5" ry="4" fill="#556db4" stroke="none"/>
</svg>
