<svg width="512" height="503" viewBox="0 0 512 503" fill="none" xmlns="http://www.w3.org/2000/svg">
<path d="M509.608 187.573C508.69 185.035 507.452 182.542 505.826 179.958C505.789 179.901 505.754 179.845 505.716 179.788L504.513 177.978C504.482 177.932 504.449 177.884 504.417 177.838C504.007 177.249 503.586 176.678 503.149 176.12C502.24 174.96 501.276 173.872 500.285 172.888L497.667 170.288L500.071 167.487C501.682 165.608 503.027 163.362 504.427 160.201C504.45 160.149 504.472 160.098 504.495 160.045C505.104 158.59 505.679 157.169 506.011 155.825C506.411 154.25 506.727 152.65 506.967 150.984C507.95 144.504 507.094 137.381 504.466 130.313C503.82 128.626 502.985 127.003 502.185 125.485C502.157 125.432 502.129 125.38 502.1 125.328L501.864 124.903C501.075 123.48 500.329 122.136 499.516 121.083L499.436 120.978C498.39 119.577 497.266 118.211 496.124 116.949C494.867 115.546 493.804 114.526 492.729 113.683C489.562 111.159 487.302 109.698 484.998 108.672C482.272 107.426 479.515 106.525 476.807 105.993L473.227 105.289L473.63 101.662C473.935 98.913 473.904 95.99 473.546 93.044C473.262 90.53 472.587 87.95 471.285 84.418C471.264 84.362 471.244 84.307 471.222 84.252C468.912 78.383 465.029 72.891 460.058 68.427C457.383 65.974 454.352 64.11 452.009 62.76C451.954 62.729 451.898 62.696 451.842 62.666C449.415 61.342 446.682 60.261 443.249 59.262C440.847 58.562 438.116 58.165 434.654 58.011C434.609 58.009 434.563 58.008 434.518 58.007C434.079 57.995 433.644 57.988 433.211 57.988C432.518 57.988 431.493 58.006 430.452 58.102C429.043 58.249 427.645 58.471 426.297 58.763L422.459 59.595L421.588 55.765C419.068 44.676 410.452 34.581 399.109 29.421C393.552 26.891 387.725 25.607 381.791 25.607C375.732 25.607 369.837 26.99 364.742 29.606L361.227 31.41L359.408 27.901C354.072 17.612 343.783 10.035 331.91 7.635C329.037 7.045 326.115 6.746 323.225 6.746C314.065 6.746 305.353 9.725 298.694 15.134L295.567 17.674L293.075 14.508C291.397 12.376 289.423 10.419 287.245 8.721C285.081 7.013 282.692 5.488 280.145 4.193C280.053 4.147 279.961 4.101 279.866 4.058C274.124 1.409 268.288 0.0490001 262.521 0.0180001C262.29 0.0140001 261.527 0 261.254 0C255.839 0 250.312 1.173 244.828 3.486C244.733 3.526 244.639 3.568 244.546 3.611C241.962 4.82 239.509 6.276 237.289 7.912C235.05 9.545 233.031 11.421 231.288 13.489L228.692 16.57L225.65 13.926C218.783 7.954 209.648 4.666 199.928 4.666C197.543 4.666 195.126 4.869 192.747 5.269C180.81 7.272 170.276 14.456 164.569 24.485L162.619 27.909L159.182 25.984C153.671 22.897 147.235 21.265 140.568 21.265C135.27 21.265 130.041 22.286 125.027 24.297C124.979 24.316 124.929 24.337 124.88 24.357C121.811 25.659 119.041 27.144 116.649 28.773C116.589 28.814 116.53 28.855 116.471 28.898C114.03 30.657 111.78 32.619 109.785 34.729C109.721 34.796 109.66 34.863 109.6 34.932C105.553 39.514 102.777 44.432 101.351 49.549L100.301 53.317L96.52 52.321C93.614 51.556 90.855 51.137 88.317 51.08C88.279 51.079 88.243 51.079 88.206 51.079L87.605 51.074C84.977 51.074 82.273 51.333 79.568 51.844C79.505 51.856 79.444 51.868 79.382 51.882C76.657 52.463 73.833 53.409 70.683 54.803C68.18 55.936 65.467 57.603 62.385 59.899C62.33 59.94 62.275 59.982 62.221 60.025C59.954 61.807 57.71 64.027 55.359 66.816C55.3 66.886 55.242 66.958 55.184 67.03C53.419 69.274 51.786 71.884 50.329 74.79C50.285 74.877 50.243 74.966 50.202 75.054C47.655 80.626 46.461 86.434 46.748 91.851L46.951 95.661L43.153 96.011C41.828 96.133 40.468 96.335 39.111 96.614C39.016 96.633 38.921 96.655 38.827 96.678C37.641 96.965 36.344 97.368 34.921 97.893C31.678 99.113 29.062 100.467 26.971 101.997L26.862 102.081C23.777 104.25 21.469 106.31 19.659 108.492L19.544 108.628C18.468 109.869 17.425 111.187 16.443 112.542C16.354 112.666 16.267 112.792 16.184 112.921C15.336 114.245 14.488 115.727 13.611 117.42C10.473 123.414 8.82103 130.519 8.96003 137.468C9.03103 140.273 9.52303 143.376 10.422 146.693C10.441 146.764 10.462 146.835 10.482 146.905C11.242 149.432 12.452 152.049 14.082 154.685L15.964 157.729L13.128 159.913C5.65203 165.67 -2.13097 178.479 0.535034 195.629C0.558034 195.77 0.582034 195.911 0.613034 196.052C1.01503 197.961 1.50703 199.876 2.10003 201.826L2.28203 202.402C2.59603 203.407 2.74203 203.861 2.98203 204.428C3.39603 205.381 3.82903 206.316 4.25503 207.18C5.07503 208.813 5.96103 210.537 6.97603 212.069C7.03603 212.16 7.09803 212.249 7.16103 212.337C8.24203 213.836 9.41103 215.303 10.594 216.64L10.906 216.985C11.424 217.562 11.822 217.998 12.222 218.381C12.299 218.454 12.376 218.525 12.456 218.595C13.11 219.174 13.771 219.727 14.431 220.251C15.702 221.261 17.009 222.188 18.316 223.007C18.471 223.104 18.63 223.197 18.79 223.283C21.492 224.733 24.286 225.779 27.092 226.396L30.238 227.088L30.207 230.31C30.178 233.318 30.567 236.388 31.332 239.188C31.36 239.293 31.391 239.396 31.424 239.5C31.894 240.981 32.47 242.491 33.132 243.979C33.446 244.685 33.78 245.393 34.138 246.1C34.207 246.236 34.279 246.37 34.356 246.501C34.731 247.15 35.13 247.783 35.547 248.427C36.486 249.866 37.526 251.302 38.641 252.695C38.71 252.782 38.782 252.867 38.854 252.95C39.809 254.047 40.931 255.186 42.53 256.672C43.228 257.313 43.946 257.946 44.653 258.538C45.245 259.022 45.778 259.388 46.207 259.682L46.798 260.091C48.287 261.106 49.853 262.076 51.453 262.973C51.572 263.04 51.692 263.103 51.814 263.164C57.909 266.187 64.236 267.786 70.109 267.786C70.45 267.786 70.787 267.782 71.212 267.767C72.742 267.731 74.262 267.623 75.732 267.44C75.79 267.434 75.848 267.425 75.907 267.417C77.421 267.196 78.944 266.807 80.037 266.511C83.087 265.654 85.611 264.624 87.75 263.359L91.159 261.346L93.179 264.751C98.945 274.475 110.046 281.554 122.134 283.225C124.098 283.501 126.087 283.64 128.043 283.64C137.863 283.64 147.214 280.159 154.376 273.838L157.416 271.156L160.032 274.252C167.316 282.87 178.21 288.035 189.925 288.425C190.476 288.442 191.023 288.429 191.572 288.426C188.564 294.219 186.917 300.725 186.917 307.498C186.917 327.596 201.327 344.386 220.358 348.095C222.312 384.931 244.389 418.584 277.742 434.845L307.304 449.26L307.538 449.373C317.701 454.271 324.016 464.114 324.016 475.061C324.016 490.175 336.313 502.472 351.427 502.472H361.28C376.394 502.472 388.691 490.175 388.691 475.061C388.691 453.257 380.805 432.41 367.243 415.968C369.707 416.14 372.18 416.237 374.656 416.237C376.114 416.237 377.575 416.207 379.034 416.146C435.497 413.804 479.699 367.652 479.663 311.076C479.661 306.612 476.041 302.997 471.579 302.997C471.579 302.997 471.576 302.997 471.574 302.997C467.109 302.999 463.492 306.622 463.495 311.087C463.525 358.958 426.131 398.011 378.364 399.992C363.581 400.606 348.805 397.541 335.651 391.127L306.089 376.712C295.854 371.721 288.514 362.284 285.919 351.432C285.988 351.427 286.057 351.429 286.125 351.423C292.466 350.916 298.141 349.314 302.965 346.677C308.057 343.922 312.323 340.364 315.649 336.102L318.114 332.941L321.249 335.44C325.438 338.78 330.506 341.333 335.906 342.825C335.999 342.851 336.092 342.875 336.186 342.897C339.568 343.702 343 344.11 346.387 344.11C348.847 344.11 351.364 343.89 353.667 343.474C353.703 343.468 353.738 343.461 353.774 343.453C360.198 342.203 365.825 339.86 370.426 336.539C372.815 334.853 374.962 332.999 376.804 331.029C376.85 330.979 376.896 330.93 376.94 330.879C378.804 328.785 380.428 326.533 381.768 324.185L383.712 320.776L387.141 322.684C389.813 324.171 392.365 325.261 394.763 325.934C397.511 326.692 400.414 327.17 403.332 327.356L403.468 327.366C406.064 327.579 408.99 327.39 412.498 326.772C416.046 326.152 418.969 325.286 421.691 324.044L421.905 323.95C433.874 318.842 443.025 308.271 445.224 297.004L445.945 293.308L449.674 293.836C450.962 294.018 452.335 294.196 453.82 294.196C453.82 294.196 453.823 294.196 453.825 294.196C455.26 294.181 456.741 294.079 458.23 293.888C459.729 293.697 461.261 293.416 462.798 293.048C464.218 292.706 465.731 292.097 467.065 291.561C467.094 291.549 467.138 291.531 467.167 291.519C468.667 290.895 470.181 290.176 471.667 289.382C471.722 289.353 471.777 289.323 471.831 289.293C473.151 288.547 474.451 287.603 475.893 286.535C475.94 286.499 475.987 286.465 476.033 286.428C477.297 285.448 478.73 284.337 479.954 283.126C479.998 283.082 480.042 283.038 480.086 282.993C481.38 281.653 482.627 280.241 483.795 278.789C484.317 278.139 484.828 277.487 485.315 276.824C485.423 276.676 485.526 276.525 485.624 276.371C486.07 275.669 486.5 274.962 486.919 274.244C487.804 272.724 488.625 271.16 489.362 269.596C489.428 269.456 489.489 269.315 489.547 269.171C490.862 265.902 491.774 262.739 492.257 259.773C492.278 259.646 492.296 259.519 492.31 259.39C492.609 256.764 492.895 253.349 492.45 250.198C491.975 246.867 491.26 244.12 490.266 241.8L488.828 238.441L492.057 236.731C494.523 235.426 496.87 233.796 499.033 231.887C499.115 231.815 499.196 231.74 499.274 231.665C501.552 229.484 503.494 227.192 505.091 224.779C508.69 219.221 511.033 212.669 511.686 206.386L511.7 206.262C512.463 199.93 511.765 193.655 509.608 187.573ZM298.998 391.251L328.561 405.666C328.572 405.671 328.584 405.677 328.595 405.682C355.277 418.541 372.519 445.775 372.519 475.065C372.519 481.264 367.476 486.307 361.277 486.307H351.424C345.225 486.307 340.182 481.264 340.182 475.065C340.182 457.852 330.362 442.429 314.521 434.795L284.826 420.317C256.969 406.736 238.451 378.749 236.542 348.029C237.177 347.901 237.812 347.77 238.44 347.613C242.769 346.52 245.391 342.124 244.299 337.796C243.205 333.467 238.81 330.846 234.482 331.937C232.471 332.446 230.385 332.702 228.284 332.702C214.389 332.702 203.085 321.398 203.085 307.503C203.085 302.744 204.413 298.198 206.82 294.29C213.018 308.461 226.275 318.736 241.724 320.931L244.231 321.288L244.964 323.711C246.969 330.343 250.765 336.341 255.942 341.054C259.826 344.592 264.361 347.325 269.078 348.996C271.208 367.032 282.476 383.195 298.998 391.251ZM495.638 204.41L495.61 204.668C495.21 208.519 493.758 212.544 491.567 215.928C490.714 217.215 489.557 218.579 488.214 219.88C487.04 220.9 485.789 221.765 484.493 222.451L476.375 226.749C476.143 226.728 475.909 226.713 475.672 226.713H461.639C452.274 226.713 444.657 219.096 444.657 209.731C444.657 191.452 429.785 176.58 411.506 176.58H410.328C392.049 176.58 377.177 191.451 377.177 209.731C377.177 218.032 370.424 224.785 362.123 224.785C352.758 224.785 345.141 217.168 345.141 207.803V200.732C345.141 196.267 341.521 192.648 337.057 192.648C332.592 192.648 328.973 196.268 328.973 200.732V207.803C328.973 226.082 343.844 240.954 362.124 240.954C379.34 240.954 393.346 226.948 393.346 209.732C393.346 200.367 400.963 192.75 410.328 192.75H411.506C420.871 192.75 428.488 200.367 428.488 209.732C428.488 228.011 443.359 242.883 461.639 242.883H473.136L475.403 248.177C475.824 249.162 476.175 250.614 476.441 252.481C476.577 253.448 476.519 255.091 476.266 257.367C475.976 259.052 475.426 260.922 474.631 262.932C474.12 264.002 473.553 265.073 472.947 266.115C472.682 266.569 472.409 267.02 472.128 267.469C471.824 267.874 471.509 268.273 471.192 268.667C470.356 269.707 469.46 270.724 468.531 271.69C467.997 272.203 467.013 272.969 466.195 273.602C465.53 274.096 464.494 274.86 463.936 275.188C462.944 275.715 461.945 276.188 461.028 276.57C460.443 276.805 459.353 277.244 459.022 277.335C458.063 277.564 457.105 277.74 456.181 277.858C455.313 277.969 454.463 278.028 453.724 278.037C453.352 278.037 452.287 277.885 451.938 277.835L440.61 276.229C436.348 275.623 432.365 278.463 431.541 282.685L429.35 293.913C428.164 299.985 422.607 306.088 415.518 309.099C415.484 309.114 415.448 309.129 415.414 309.144L415.107 309.28C415.074 309.295 415.039 309.31 415.007 309.325C413.564 309.987 411.881 310.471 409.699 310.852C408.037 311.144 406.692 311.287 405.589 311.287C405.323 311.287 405.058 311.279 404.702 311.25L404.412 311.229C402.537 311.11 400.734 310.814 399.089 310.361C398.302 310.14 396.953 309.648 394.998 308.561L384.578 302.763C380.704 300.607 375.82 301.973 373.624 305.822L367.717 316.177C366.951 317.52 366.011 318.826 364.921 320.06C363.842 321.203 362.553 322.305 361.025 323.383C358.28 325.363 354.816 326.774 350.731 327.576C347.481 328.155 343.685 328.048 340.06 327.205C336.8 326.286 333.78 324.766 331.318 322.803L325.893 318.477C325.92 318.21 325.934 317.939 325.934 317.665V316.487C325.934 298.208 311.062 283.336 292.783 283.336C284.482 283.336 277.729 276.583 277.729 268.282C277.729 258.917 285.346 251.3 294.711 251.3H301.781C306.246 251.3 309.865 247.68 309.865 243.216C309.865 238.752 306.245 235.132 301.781 235.132H294.711C276.432 235.132 261.56 250.003 261.56 268.283C261.56 285.499 275.566 299.505 292.782 299.505C302.147 299.505 309.764 307.122 309.764 316.487V317.347L302.888 326.162C300.943 328.655 298.376 330.774 295.228 332.478C292.385 334.032 288.885 334.985 284.837 335.309C282.816 335.467 280.688 335.318 278.475 334.87C278.442 334.862 278.408 334.855 278.374 334.847C277.174 334.599 275.951 334.269 274.704 333.843C271.918 332.897 269.192 331.255 266.821 329.096C263.802 326.346 261.592 322.865 260.432 319.027L258.206 311.665C257.295 308.653 254.72 306.444 251.605 306.001L243.991 304.919C233.136 303.375 223.949 295.61 220.586 285.135L217.211 274.622C216.118 271.217 212.961 269.008 209.518 269.008C208.925 269.008 208.324 269.074 207.723 269.21L196.952 271.656C194.843 272.136 192.621 272.337 190.448 272.266C183.298 272.028 176.709 268.947 172.371 263.814L164.425 254.41C163.022 252.749 161.009 251.724 158.84 251.565C156.67 251.41 154.531 252.128 152.901 253.566L143.669 261.714C138.599 266.189 131.618 268.228 124.354 267.21C117.122 266.211 110.34 262.008 107.075 256.503L100.94 246.156C98.666 242.32 93.715 241.052 89.875 243.319L79.518 249.436C78.614 249.97 77.314 250.477 75.731 250.922C74.829 251.166 74.126 251.327 73.641 251.404C72.735 251.513 71.787 251.579 70.756 251.602C70.477 251.611 70.289 251.615 70.1 251.615C66.759 251.615 62.984 250.63 59.17 248.766C58.044 248.128 56.947 247.447 55.961 246.774L55.334 246.341C55.182 246.236 55.027 246.138 54.963 246.091C54.503 245.704 53.973 245.238 53.495 244.799C52.432 243.811 51.699 243.08 51.144 242.455C50.397 241.513 49.704 240.553 49.093 239.615C48.874 239.279 48.658 238.94 48.451 238.593C48.257 238.202 48.073 237.808 47.895 237.409C47.497 236.515 47.155 235.629 46.875 234.77C46.525 233.429 46.347 231.945 46.361 230.466L46.456 220.679C46.494 216.854 43.844 213.526 40.108 212.705L30.547 210.603C29.274 210.324 27.966 209.839 26.658 209.161C25.933 208.694 25.199 208.166 24.47 207.587C24.098 207.292 23.728 206.984 23.361 206.665C23.228 206.523 23.07 206.344 22.906 206.162L22.637 205.865C21.893 205.024 21.112 204.045 20.37 203.027C19.862 202.235 19.266 201.064 18.72 199.978C18.453 199.436 18.165 198.815 17.915 198.248C17.855 198.063 17.779 197.817 17.699 197.559L17.534 197.038C17.124 195.691 16.768 194.313 16.471 192.938C14.875 182.176 19.801 175.174 22.984 172.723L31.6 166.089C34.883 163.56 35.724 158.958 33.545 155.433L27.828 146.185C26.978 144.809 26.343 143.483 25.988 142.344C25.454 140.348 25.154 138.524 25.117 137.101C25.034 132.931 26.059 128.49 27.944 124.888C28.562 123.697 29.128 122.695 29.67 121.833C30.337 120.923 31.041 120.038 31.809 119.152L32.035 118.885C32.965 117.764 34.275 116.626 36.23 115.25L36.464 115.081C37.389 114.404 38.784 113.712 40.563 113.043C41.294 112.774 41.942 112.566 42.492 112.425C43.221 112.282 43.94 112.176 44.632 112.112L56.175 111.047C60.5 110.648 63.736 106.904 63.505 102.566L62.888 90.994C62.74 88.212 63.415 85.074 64.841 81.911C65.77 80.078 66.767 78.471 67.806 77.131C69.371 75.286 70.785 73.868 72.126 72.803C74.196 71.266 75.95 70.168 77.28 69.565C79.269 68.685 81.076 68.064 82.654 67.719C84.34 67.406 86 67.248 87.523 67.247L87.988 67.251C88.868 67.275 90.332 67.419 92.391 67.961L103.656 70.928C110.177 77.557 110.15 88.253 103.562 94.841C97.301 101.103 93.852 109.427 93.852 118.282C93.852 127.137 97.3 135.462 103.562 141.723L104.395 142.556C110.656 148.817 118.981 152.266 127.836 152.266C136.691 152.266 145.016 148.818 151.277 142.556C157.147 136.687 166.697 136.687 172.566 142.556C179.188 149.177 179.188 159.951 172.566 166.573L167.567 171.572C164.41 174.729 164.411 179.848 167.567 183.005C169.146 184.583 171.215 185.372 173.283 185.372C175.351 185.372 177.421 184.583 179 183.004L183.998 178.005C196.923 165.08 196.923 144.049 183.998 131.123C171.824 118.949 152.017 118.949 139.843 131.123C136.635 134.331 132.371 136.097 127.834 136.097C123.298 136.097 119.034 134.33 115.826 131.123L114.993 130.29C111.785 127.082 110.019 122.818 110.019 118.281C110.019 113.745 111.786 109.481 114.993 106.273C127.815 93.45 127.91 72.658 115.295 59.708L116.915 53.894C117.67 51.186 119.251 48.445 121.616 45.744C122.866 44.434 124.281 43.204 125.823 42.085C127.306 41.086 129.084 40.142 131.108 39.278C134.178 38.057 137.357 37.437 140.558 37.437C144.463 37.437 148.168 38.356 151.27 40.094L161.712 45.942C165.588 48.115 170.49 46.749 172.688 42.888L178.61 32.487C181.94 26.637 188.222 22.425 195.415 21.218C196.912 20.966 198.427 20.839 199.917 20.839C205.738 20.839 211.105 22.719 215.03 26.131L221.41 31.679C221.409 31.732 221.402 31.784 221.402 31.836V56.874C221.402 75.153 236.273 90.025 254.553 90.025C263.918 90.025 271.535 97.642 271.535 107.007V108.185C271.535 117.55 263.916 125.167 254.553 125.167C237.337 125.167 223.331 139.173 223.331 156.389C223.331 174.668 238.202 189.54 256.482 189.54H263.552C268.017 189.54 271.636 185.92 271.636 181.456C271.636 176.991 268.016 173.372 263.552 173.372H256.482C247.117 173.372 239.5 165.753 239.5 156.39C239.5 148.089 246.253 141.336 254.554 141.336C272.833 141.336 287.705 126.464 287.705 108.185V107.007C287.705 88.728 272.833 73.856 254.554 73.856C245.189 73.856 237.572 66.239 237.572 56.874V31.84C237.572 31.611 237.557 31.386 237.538 31.162L243.642 23.915C244.548 22.839 245.612 21.853 246.839 20.958C248.196 19.957 249.679 19.073 251.248 18.329C254.682 16.9 258.044 16.174 261.243 16.174C261.498 16.174 262.244 16.19 262.252 16.19C262.297 16.191 262.341 16.191 262.386 16.191C265.795 16.204 269.345 17.04 272.941 18.679C274.488 19.477 275.928 20.398 277.255 21.446C278.46 22.386 279.476 23.389 280.361 24.515L287.931 34.131C289.271 35.833 291.236 36.926 293.388 37.165C295.539 37.404 297.698 36.77 299.38 35.405L308.879 27.688C313.914 23.597 321.292 21.968 328.672 23.482C335.82 24.926 341.94 29.362 345.043 35.346L350.567 46.002C352.616 49.955 357.473 51.507 361.437 49.473L372.116 43.991C374.937 42.542 378.277 41.777 381.779 41.777C385.387 41.777 388.96 42.57 392.401 44.138C399.144 47.206 404.409 53.176 405.812 59.349L406.783 63.621C401.119 66.126 396.243 70.252 392.67 75.678C387.773 83.117 385.95 92.002 387.538 100.696C388.26 104.652 387.399 108.652 385.113 111.96C382.827 115.268 379.389 117.487 375.433 118.21C370.971 119.025 366.457 118.053 362.727 115.473C358.995 112.894 356.491 109.016 355.676 104.554L354.406 97.598C353.604 93.205 349.392 90.3 345.001 91.097C340.609 91.899 337.698 96.109 338.5 100.502L339.77 107.458C341.36 116.168 346.247 123.739 353.531 128.773C359.135 132.647 365.64 134.663 372.31 134.663C374.31 134.663 376.325 134.482 378.334 134.114C386.538 132.616 393.668 128.013 398.41 121.152C403.152 114.291 404.939 105.995 403.441 97.791C402.616 93.277 403.612 88.456 406.172 84.567C408.733 80.677 412.537 78.098 416.883 77.303C416.993 77.283 417.099 77.251 417.206 77.226C417.486 77.195 417.768 77.151 418.05 77.09L429.71 74.561C430.481 74.394 431.287 74.267 432.015 74.19C432.057 74.187 432.444 74.152 433.199 74.152C433.463 74.152 433.727 74.156 433.993 74.164C436.067 74.259 437.613 74.461 438.718 74.784C440.963 75.437 442.65 76.085 444.015 76.818C445.508 77.68 447.621 78.966 449.18 80.397C452.332 83.227 454.734 86.578 456.133 90.093C456.929 92.261 457.34 93.732 457.475 94.921C457.694 96.724 457.718 98.344 457.548 99.876L456.326 110.893C455.862 115.07 458.677 118.906 462.801 119.718L473.68 121.857C475.148 122.145 476.69 122.656 478.334 123.407C479.343 123.857 480.67 124.757 482.688 126.364C483.036 126.638 483.475 127.073 484.099 127.77C484.941 128.7 485.716 129.641 486.509 130.704L486.615 130.841C486.823 131.14 487.358 132.104 487.714 132.747L487.908 133.096C488.445 134.116 489.032 135.256 489.325 136.019C490.948 140.386 491.531 144.838 490.96 148.613C490.793 149.766 490.586 150.823 490.323 151.863C490.218 152.238 489.797 153.252 489.601 153.722C488.9 155.294 488.308 156.352 487.789 156.956L480.489 165.461C477.729 168.676 477.92 173.477 480.927 176.463L488.883 184.364C489.4 184.877 489.913 185.457 490.399 186.078C490.633 186.378 490.864 186.688 491.088 187.008L492.182 188.653C493.159 190.215 493.882 191.66 494.375 193.026C495.685 196.688 496.109 200.494 495.638 204.41Z" fill="#002935"/>
</svg>
