<svg width="30" height="30" viewBox="0 0 30 30" fill="none" xmlns="http://www.w3.org/2000/svg">
<g clip-path="url(#clip0_562_3626)">
<path d="M12.7013 16.7234C13.4104 17.4822 14.1849 18.1767 15.0159 18.7986C15.9146 19.4688 16.867 20.0633 17.8634 20.576L17.9048 20.5467C17.9778 20.4881 18.0606 20.4124 18.1482 20.327C18.2358 20.2415 18.2942 20.1683 18.3721 20.0828L18.6471 19.7239C18.6714 19.6864 18.6991 19.6513 18.7299 19.6189C19.7788 18.2322 21.0858 16.5647 23.1886 17.5413C23.2322 17.5594 23.2745 17.5806 23.3152 17.6048C25.0188 18.6155 26.7663 19.5945 28.4845 20.5857C28.5273 20.6082 28.568 20.6343 28.6062 20.6639C29.0318 20.9538 29.3735 21.3513 29.5968 21.8162C29.8176 22.2951 29.9306 22.8169 29.9278 23.3445C29.9226 23.8493 29.8456 24.3508 29.699 24.8338C29.5447 25.3494 29.3324 25.8458 29.0662 26.3133C28.7378 26.8959 28.3103 27.4165 27.8031 27.8514C27.3243 28.261 26.789 28.5989 26.2138 28.8548H26.2016C25.6791 29.0914 25.1367 29.2809 24.5807 29.4212C24.0409 29.5593 23.4942 29.6685 22.9428 29.7483C22.0994 29.8749 21.2441 29.9012 20.3946 29.8265C19.5547 29.7514 18.7251 29.5877 17.9194 29.3382C17.0931 29.0755 16.2884 28.749 15.5124 28.3616C14.6654 27.9424 13.8401 27.4803 13.0396 26.9773L12.8352 26.8504C12.088 26.3841 11.2824 25.8738 10.4671 25.2708C8.78559 23.9918 7.23641 22.5465 5.8429 20.9568C4.49139 19.4244 3.30824 17.7506 2.31389 15.9642C1.4288 14.3896 0.773129 12.696 0.366845 10.9349C0.00159061 9.36889 -0.0644766 7.74767 0.172141 6.15703C0.315795 5.21449 0.61347 4.30217 1.05318 3.45683C1.46368 2.66914 2.03015 1.97379 2.7179 1.41337C3.39933 0.865383 4.18785 0.466982 5.03244 0.243941C5.92525 0.0152097 6.85108 -0.0550229 7.76803 0.0364213C8.01237 0.0521726 8.24862 0.130332 8.45436 0.263472C8.65641 0.39447 8.8235 0.572981 8.94112 0.783492L12.217 6.34746C12.5056 6.72084 12.6941 7.16208 12.7646 7.6292C12.8229 8.09385 12.7539 8.56565 12.5651 8.99394C12.4091 9.34846 12.1952 9.67439 11.9323 9.9583C11.6722 10.2397 11.3852 10.4948 11.0756 10.72C10.8979 10.8738 10.674 11.0374 10.4403 11.2083L10.4184 11.2254C10.1411 11.4163 9.87837 11.6277 9.63232 11.8577C9.53621 11.9356 9.46093 12.0363 9.41328 12.1507C9.41328 12.1775 9.43519 12.1507 9.45952 12.1922L9.54227 12.3216C9.81729 12.7537 10.3479 13.5789 10.9539 14.4554C11.4872 15.2498 12.0709 16.009 12.7013 16.7283V16.7234ZM14.0278 20.117C13.1224 19.4386 12.2772 18.683 11.5015 17.8587C10.8123 17.0808 10.1765 16.2569 9.59825 15.3929C8.99467 14.5188 8.43976 13.657 8.15257 13.1956L8.08199 13.0906C7.95994 12.9401 7.8689 12.7668 7.81417 12.5807C7.75944 12.3946 7.7421 12.1995 7.76317 12.0066C7.8277 11.4915 8.07579 11.0172 8.46167 10.6712C8.76895 10.3789 9.09851 10.1112 9.44736 9.87041C9.64206 9.7288 9.82703 9.59209 9.99496 9.44804L10.0461 9.40898C10.2823 9.24321 10.5002 9.0525 10.6959 8.84013C10.8362 8.68963 10.9513 8.51731 11.0366 8.32988C11.1069 8.17738 11.1346 8.00865 11.1169 7.8416C11.0806 7.65198 10.9969 7.47473 10.8736 7.32646C10.8435 7.29206 10.8174 7.25439 10.7957 7.21416L7.55386 1.67461C6.85089 1.61048 6.14217 1.66745 5.45836 1.84306C4.83607 2.00615 4.25538 2.29989 3.7547 2.70488C3.24156 3.1249 2.81851 3.64478 2.51102 4.2332C2.1582 4.91706 1.91976 5.65442 1.80522 6.41582C1.60012 7.79765 1.65792 9.20596 1.97559 10.5662C2.35196 12.1738 2.95514 13.7194 3.76686 15.1561C4.70128 16.8336 5.81436 18.4044 7.08657 19.8411C8.40694 21.3462 9.87457 22.7146 11.4674 23.9256C12.1975 24.4798 12.991 24.9705 13.7211 25.4246L13.928 25.5564C14.6773 26.0281 15.4498 26.4616 16.2425 26.8553C16.9411 27.2045 17.6662 27.4976 18.411 27.7317C19.1053 27.9504 19.8208 28.0944 20.5455 28.1614C21.2677 28.2236 21.9947 28.2007 22.7116 28.0931C23.2032 28.0238 23.6907 27.9276 24.1718 27.805C24.6335 27.6892 25.0839 27.5323 25.5177 27.3362H25.5396C25.9724 27.1439 26.3755 26.8907 26.7371 26.5843C27.0983 26.274 27.403 25.9031 27.6376 25.4881C27.8415 25.1307 28.0048 24.7516 28.1243 24.3577C28.2248 24.0258 28.2789 23.6816 28.285 23.3348C28.2911 23.0537 28.2337 22.7749 28.117 22.5193C28.0187 22.3119 27.8665 22.1349 27.6765 22.0066C26.3598 21.0618 24.0477 19.9095 22.5655 19.0501L22.495 19.0135C21.5823 18.6058 20.7353 19.6849 20.0466 20.5955L20.0052 20.6541C19.8859 20.8128 19.7618 20.9666 19.6644 21.0984C19.5671 21.2303 19.4211 21.3914 19.3237 21.4891C19.1926 21.6203 19.0536 21.7435 18.9075 21.8577C18.7427 21.9825 18.5618 22.0844 18.3697 22.1604C18.1879 22.2322 17.9928 22.2638 17.7977 22.2532C17.6298 22.2418 17.4651 22.2013 17.311 22.1336L17.2331 22.0994C16.1107 21.5306 15.0384 20.8675 14.0278 20.117Z" fill="#FF4880"/>
</g>
<defs>
<clipPath id="clip0_562_3626">
<rect width="29.9065" height="29.8608" fill="white" transform="translate(0.0292969)"/>
</clipPath>
</defs>
</svg>
