<svg width="11" height="13" viewBox="0 0 11 13" fill="none" xmlns="http://www.w3.org/2000/svg">
<path d="M9.96042 5.17696L2.78048 0.751107C2.26102 0.43131 1.63299 0.418014 1.10046 0.71554C0.567921 1.01302 0.25 1.55486 0.25 2.16485V10.9762C0.25 11.8986 0.993162 12.653 1.90656 12.6579C1.90906 12.6579 1.91155 12.658 1.91399 12.658C2.19943 12.6579 2.49689 12.5685 2.77471 12.399C2.9982 12.2626 3.06884 11.9709 2.93248 11.7474C2.79612 11.5239 2.50437 11.4533 2.28094 11.5896C2.151 11.6689 2.02409 11.7099 1.91167 11.7099C1.56703 11.708 1.19804 11.4128 1.19804 10.9763V2.16487C1.19804 1.9032 1.33442 1.67082 1.56283 1.5432C1.79127 1.41558 2.06063 1.42128 2.28318 1.55831L9.46314 5.98416C9.67894 6.11702 9.80243 6.33857 9.80191 6.59201C9.80138 6.84542 9.67699 7.06647 9.46001 7.19888L4.26887 10.3773C4.04559 10.5141 3.9754 10.8059 4.11211 11.0291C4.2488 11.2524 4.54063 11.3226 4.76391 11.1859L9.95443 8.00781C10.4514 7.70464 10.7488 7.17611 10.75 6.59391C10.7512 6.01177 10.4559 5.48201 9.96042 5.17696Z" fill="#0957DE"/>
</svg>
