<svg width="512" height="472" viewBox="0 0 512 472" fill="none" xmlns="http://www.w3.org/2000/svg">
<path d="M466.257 46.3809C408.785 -11.0931 317.295 -14.3211 256 36.6979C194.707 -14.3211 103.215 -11.0921 45.743 46.3809C16.245 75.8779 0 115.097 0 156.813C0 198.529 16.245 237.748 45.743 267.245L245.394 466.896C248.207 469.709 252.022 471.29 256 471.29C259.978 471.29 263.793 469.709 266.606 466.896L466.257 267.245C495.755 237.747 512 198.528 512 156.813C512 115.098 495.755 75.8779 466.257 46.3809ZM66.956 67.5929C91.554 42.9959 123.864 30.6969 156.175 30.6969C188.486 30.6969 220.797 42.9959 245.394 67.5929C251.251 73.4509 260.749 73.4509 266.607 67.5929C315.803 18.3989 395.85 18.3979 445.045 67.5929C468.875 91.4249 482 123.111 482 156.813C482 179.744 475.918 201.739 464.528 220.964H374.528L318.731 137.269C315.879 132.991 311.053 130.463 305.893 130.594C300.753 130.716 296.033 133.463 293.388 137.872L212.897 272.023L166.232 225.358C163.419 222.545 159.604 220.964 155.626 220.964H47.472C36.082 201.738 30 179.744 30 156.813C30 123.11 43.125 91.4249 66.956 67.5929ZM256 435.076L71.888 250.964H149.412L205.268 306.82C208.098 309.65 211.92 311.214 215.873 311.214C216.482 311.214 217.095 311.177 217.706 311.102C222.29 310.538 226.359 307.893 228.736 303.932L306.916 173.632L354.018 244.285C356.8 248.458 361.484 250.965 366.499 250.965H440.111L256 435.076Z" fill="#002935"/>
</svg>
