<svg width="48" height="60" viewBox="0 0 48 60" fill="none" xmlns="http://www.w3.org/2000/svg">
<g clip-path="url(#clip0_901_37)">
<path d="M28.4706 0C28.6902 0.328125 29.0039 0.609375 29.1294 0.96875C29.349 1.54688 29.4588 2.17187 29.6157 2.78125C30.2745 5.3125 31.5451 6.35938 34.1647 6.5625C35.2941 6.65625 36.4392 6.71875 37.5529 6.96875C40.0627 7.53125 41.6314 9.125 42.2118 11.625C42.3216 12.1094 42.4941 12.2031 42.949 12.1875C43.8745 12.1562 44.7843 12.1719 45.7098 12.1875C47.0118 12.2031 47.9843 13.1406 48 14.4375C48.0314 16.5469 48.0157 18.6562 48 20.7656C48 21.3906 47.6235 21.7969 47.1059 21.7812C46.5882 21.7812 46.2431 21.375 46.2431 20.7344C46.2431 18.75 46.2431 16.75 46.2431 14.7656C46.2431 14.0625 46.1176 13.9375 45.4274 13.9375C31.1529 13.9375 16.8784 13.9375 2.60392 13.9375C1.89804 13.9375 1.77255 14.0625 1.77255 14.75C1.77255 28.9688 1.77255 43.1875 1.77255 57.4062C1.77255 58.125 1.89804 58.25 2.63529 58.25C16.8627 58.25 31.1059 58.25 45.3333 58.25C46.1333 58.25 46.2275 58.1406 46.2275 57.3281C46.2275 46.5625 46.2275 35.8125 46.2275 25.0469C46.2275 24.8594 46.2275 24.6563 46.2275 24.4688C46.2588 23.9219 46.6039 23.5625 47.1059 23.5625C47.5765 23.5625 47.9373 23.9062 47.9843 24.4062C48 24.5625 47.9843 24.7188 47.9843 24.875C47.9843 35.6875 47.9843 46.5156 47.9843 57.3281C47.9843 59.1406 47.1059 60 45.2706 60C31.0745 60 16.8784 60 2.68235 60C0.862745 60 0 59.1406 0 57.3125C0 43.1562 0 29 0 14.8438C0 13.0469 0.862745 12.1875 2.65098 12.1875C3.51373 12.1875 4.37647 12.1719 5.23922 12.1875C5.53725 12.1875 5.67843 12.125 5.75686 11.7969C6.44706 8.82812 8.40784 7.10937 11.4353 6.8125C12.502 6.70312 13.5843 6.60938 14.651 6.45312C16.4863 6.20312 17.6784 5.14062 18.2118 3.40625C18.4627 2.60938 18.5882 1.76562 18.8549 0.984375C18.9804 0.625 19.2941 0.328125 19.5137 0.015625C19.7176 0.015625 19.9059 0.015625 20.1098 0.015625C20.6274 0.375 20.7529 0.84375 20.5647 1.4375C20.3137 2.23438 20.1412 3.0625 19.9059 3.85938C19.2 6.3125 17.2549 7.9375 14.7137 8.23438C13.4275 8.375 12.1412 8.5 10.8706 8.6875C9.12941 8.95312 7.59216 10.5781 7.5451 12.1562C18.5098 12.1562 29.4745 12.1562 40.4392 12.1562C40.3922 10.5625 38.8549 8.95312 37.098 8.6875C36.0784 8.53125 35.0431 8.42188 34.0078 8.32812C30.651 8.04688 28.7059 6.4375 27.8745 3.1875C27.7333 2.625 27.6078 2.04688 27.4353 1.48438C27.2314 0.875 27.3255 0.375 27.8745 0C28.0784 0 28.2667 0 28.4706 0Z" fill="#002935"/>
<path d="M26.6506 27.3125C26.6506 28.2812 26.6506 29.1719 26.6506 29.9531C27.7486 30.3281 28.7839 30.6094 29.7721 31.0156C31.4506 31.7188 32.6741 33.0625 33.8976 34.3438C34.2427 34.7031 34.2113 35.2344 33.8663 35.5625C33.5212 35.8906 33.0349 35.9219 32.6427 35.5625C32.1721 35.125 31.7172 34.6562 31.2623 34.2031C30.0074 32.9531 28.5015 32.1719 26.8074 31.9062C26.8074 34.1875 26.8074 36.4688 26.8074 38.875C27.4192 38.5156 27.8741 38.2188 28.3447 37.9688C31.278 36.3281 34.8859 37.1875 36.7525 39.9531C36.878 40.125 36.9878 40.3125 37.0663 40.5156C37.2231 40.9375 37.0819 41.2969 36.7212 41.5312C36.3447 41.7812 35.9682 41.7188 35.6388 41.4219C35.5133 41.2969 35.4192 41.1406 35.3251 41C33.8976 38.875 31.2937 38.2812 29.0663 39.5781C28.4388 39.9375 27.827 40.3281 27.231 40.7344C27.0741 40.8438 26.9329 41.0938 26.9329 41.2813C27.027 45.7344 27.1525 50.1875 27.2623 54.6875C28.3133 54.6875 29.3329 54.6875 30.3682 54.6875C30.4153 53.9688 30.4153 53.2344 30.5408 52.5156C30.8859 50.5781 31.9368 49.0469 33.5996 47.9844C35.0114 47.0938 35.8898 45.9063 36.0937 44.2344C36.1564 43.6875 36.58 43.375 37.0663 43.4375C37.5996 43.5 37.9133 43.9375 37.8349 44.5469C37.5682 46.5781 36.58 48.1719 34.8231 49.2656C33.4898 50.0938 32.58 51.2188 32.2819 52.7656C32.1565 53.375 32.2035 54.0312 32.1565 54.7031C35.7172 54.7031 39.1525 54.7031 42.6349 54.7031C42.6349 42.2969 42.6349 29.9062 42.6349 17.4844C30.1957 17.4844 17.7721 17.4844 5.27018 17.4844C5.27018 17.7344 5.27018 17.9531 5.27018 18.1875C5.27018 22.7188 5.27018 27.25 5.27018 31.7812C5.27018 31.9687 5.28586 32.1719 5.25449 32.3594C5.19174 32.8281 4.92508 33.1094 4.45449 33.1562C3.95253 33.1875 3.6388 32.9219 3.529 32.4375C3.48194 32.2656 3.49763 32.0938 3.49763 31.9062C3.49763 26.9219 3.49763 21.9531 3.49763 16.9687C3.49763 15.9375 3.74861 15.6875 4.7839 15.6875C17.5682 15.6875 30.3525 15.6875 43.1368 15.6875C44.1721 15.6875 44.4231 15.9375 44.4231 16.9531C44.4231 29.7031 44.4231 42.4531 44.4231 55.2188C44.4231 56.2031 44.1564 56.4844 43.1839 56.4844C30.3839 56.4844 17.5839 56.4844 4.76822 56.4844C3.76429 56.4844 3.49763 56.2188 3.49763 55.1875C3.49763 48.8594 3.49763 42.5312 3.49763 36.2031C3.49763 36.0156 3.48194 35.8125 3.529 35.625C3.6388 35.1719 3.95253 34.9062 4.42312 34.9375C4.89371 34.9688 5.17606 35.2344 5.25449 35.7031C5.28586 35.8906 5.27018 36.0937 5.27018 36.2812C5.27018 42.1562 5.27018 48.0312 5.27018 53.9219C5.27018 54.1562 5.27018 54.3906 5.27018 54.6719C8.75253 54.6719 12.2035 54.6719 15.7015 54.6719C15.9839 52.6562 15.3251 51 13.7564 49.7031C13.5525 49.5312 13.3172 49.3906 13.0819 49.2344C10.6976 47.6875 9.63096 45.0781 10.227 42.2188C10.7604 39.6406 12.831 37.6562 15.5133 37.2187C17.0819 36.9531 18.5564 37.2969 19.9055 38.1406C20.2663 38.3594 20.627 38.5938 21.129 38.9062C21.129 36.4844 21.129 34.2031 21.129 31.9219C19.6231 32.1406 18.2427 32.7969 17.0663 33.8594C16.5015 34.375 15.9682 34.9219 15.4192 35.4531C14.9329 35.9062 14.4623 35.9531 14.0702 35.5781C13.678 35.2031 13.7251 34.6719 14.18 34.1875C15.4976 32.8281 16.8466 31.4688 18.6819 30.7969C19.4976 30.5 20.3604 30.2813 21.2702 30.0156C21.2702 29.1875 21.2702 28.2969 21.2702 27.375C18.5251 27.1562 15.8898 27.3906 13.7094 29.3594C13.1447 29.875 12.6114 30.4219 12.0623 30.9531C11.5604 31.4375 11.0584 31.4844 10.6663 31.1094C10.2741 30.7344 10.3212 30.2187 10.7917 29.7187C12.2506 28.1719 13.8035 26.7656 15.8898 26.0781C17.4114 25.5781 18.9643 25.5312 20.5329 25.5469C20.7839 25.5469 21.0349 25.5469 21.3643 25.5469C21.3643 24.6094 21.3643 23.7031 21.3643 22.7031C20.7212 22.625 20.0153 22.4687 19.2937 22.4531C17.7721 22.4062 16.2349 22.2969 14.7133 22.4219C12.8153 22.5781 11.2153 23.5 9.88194 24.8438C9.45841 25.2812 9.03488 25.7188 8.57998 26.1094C8.20351 26.4375 7.79567 26.4219 7.4192 26.0938C7.05841 25.7812 7.02704 25.2656 7.37214 24.8906C9.28586 22.75 11.4506 20.9062 14.4623 20.6875C16.4388 20.5312 18.4466 20.7344 20.4388 20.7969C20.7682 20.8125 21.0976 20.875 21.4584 20.9219C21.7408 19.5312 22.5251 18.6562 23.9839 18.6719C25.38 18.7031 26.1329 19.5625 26.3839 20.875C27.7015 20.7656 28.9878 20.6406 30.2741 20.5781C32.0623 20.5 33.8349 20.5781 35.5447 21.2031C37.5839 21.9531 39.0898 23.4062 40.5015 24.9531C40.831 25.3125 40.7839 25.7656 40.4231 26.1094C40.0623 26.4531 39.6388 26.4688 39.2623 26.1406C38.9329 25.8594 38.6349 25.5625 38.3368 25.2344C36.5015 23.2188 34.2114 22.2344 31.4976 22.3125C29.8192 22.375 28.1408 22.5 26.4623 22.5938C26.4623 23.6406 26.4623 24.5469 26.4623 25.5312C26.7447 25.5312 26.9643 25.5312 27.1839 25.5312C29.1604 25.4844 31.0898 25.5937 32.9408 26.4375C34.6819 27.2344 35.9839 28.5469 37.2545 29.9062C37.5996 30.2656 37.5368 30.7031 37.2074 31.0625C36.8937 31.4062 36.3761 31.4219 35.9839 31.0781C35.5133 30.6562 35.0898 30.2031 34.6506 29.7656C33.0349 28.1406 31.0741 27.3437 28.7996 27.2969C28.1251 27.2969 27.4035 27.3125 26.6506 27.3125ZM20.7055 54.7031C20.8153 50.1719 20.9408 45.7188 21.0349 41.25C21.0349 41.0781 20.8937 40.8438 20.7525 40.75C20.0937 40.2969 19.4192 39.8594 18.7133 39.4688C17.0506 38.5313 15.0114 38.75 13.5525 39.9688C11.0584 42.0781 11.3094 46.0156 14.0545 47.7656C15.8741 48.9219 17.0506 50.4844 17.4427 52.6094C17.5682 53.2813 17.5368 54 17.5839 54.7031C18.6035 54.7031 19.6231 54.7031 20.7055 54.7031ZM25.4427 51.9219C24.4545 51.9219 23.5447 51.9219 22.5564 51.9219C22.5564 52.7969 22.5564 53.7344 22.5564 54.6875C23.529 54.6875 24.5015 54.6875 25.4427 54.6875C25.4427 53.7344 25.4427 52.7969 25.4427 51.9219ZM22.6663 47.5156C22.6663 48.3281 22.6663 49.1562 22.6663 50.0156C23.5604 50.3125 24.4702 50.3281 25.3015 50C25.3015 49.1094 25.3015 48.2813 25.3015 47.5156C24.4074 47.5156 23.5917 47.5156 22.6663 47.5156ZM22.7761 45.5781C23.5761 45.875 24.4074 45.8906 25.1917 45.5938C25.1917 44.7031 25.1917 43.8594 25.1917 43.0781C24.3447 43.0781 23.5917 43.0781 22.7761 43.0781C22.7761 43.8906 22.7761 44.7188 22.7761 45.5781ZM22.8388 38.6562C22.8388 39.125 22.8545 39.5938 22.8388 40.0781C22.8074 41.3125 22.9486 41.4375 24.2192 41.3594C24.4545 41.3438 24.6898 41.2969 24.9094 41.2344C25.0192 41.2031 25.1604 41.0625 25.1604 40.9844C25.1761 40.2031 25.1761 39.4062 25.1761 38.6562C24.3133 38.6562 23.6388 38.6562 22.8388 38.6562ZM22.9329 34.2344C22.9329 35 22.8859 35.75 22.9486 36.5C22.9957 37.0625 23.5447 36.8906 23.8741 36.9062C24.2819 36.9219 24.9094 37.0625 25.0035 36.5312C25.129 35.7812 25.0349 35 25.0349 34.2188C24.2976 34.2344 23.6859 34.2344 22.9329 34.2344ZM23.0584 29.8125C23.0584 30.3906 23.0584 30.9219 23.0584 31.4687C23.0427 32.4375 23.1996 32.5781 24.2035 32.4844C24.3604 32.4687 24.5329 32.4687 24.6584 32.4062C24.7682 32.3437 24.9094 32.2031 24.9251 32.0937C24.9408 31.3281 24.9408 30.5625 24.9408 29.8125C24.2506 29.8125 23.7172 29.8125 23.0584 29.8125ZM23.1682 25.4063C23.1682 26.0313 23.1682 26.6094 23.1682 27.1875C23.1682 27.9844 23.3878 28.2031 24.2035 28.0625C24.4231 28.0313 24.7839 27.8594 24.7839 27.75C24.831 26.9688 24.8153 26.1875 24.8153 25.4063C24.2192 25.4063 23.7486 25.4063 23.1682 25.4063ZM24.6741 23.5469C24.6741 22.7031 24.6741 21.9531 24.6741 21.2031C24.6741 20.7812 24.4702 20.4687 24.031 20.4531C23.5447 20.4375 23.3408 20.7656 23.3251 21.2188C23.3094 21.7969 23.2937 22.3906 23.2937 22.9688C23.278 23.5781 23.4192 23.7031 24.031 23.6719C24.2349 23.6562 24.4388 23.5781 24.6741 23.5469Z" fill="#002935"/>
<path d="M38.6981 49.3282C39.2001 49.3282 39.7177 49.3126 40.2197 49.3282C41.0197 49.3595 41.6001 49.8595 41.6785 50.6564C41.7412 51.3126 41.7412 51.9845 41.6785 52.6407C41.6157 53.4376 41.0667 53.9532 40.2353 53.9845C39.2471 54.0314 38.2432 54.0314 37.2393 53.9845C36.3295 53.9532 35.7804 53.3282 35.7491 52.422C35.7334 51.8907 35.7334 51.3751 35.7491 50.8439C35.7804 49.9532 36.3765 49.3595 37.2706 49.3282C37.7569 49.3282 38.2275 49.3282 38.6981 49.3282ZM37.553 52.2189C38.3687 52.2189 39.1216 52.2189 39.9059 52.2189C39.9059 51.8282 39.9059 51.4845 39.9059 51.1407C39.0902 51.1407 38.3216 51.1407 37.553 51.1407C37.553 51.5157 37.553 51.8439 37.553 52.2189Z" fill="#002935"/>
<path d="M9.03484 48.8282C9.48974 48.8282 9.94464 48.8126 10.3839 48.8282C10.9015 48.8595 11.2623 49.2032 11.278 49.6564C11.2937 50.1095 10.9643 50.5314 10.4466 50.547C9.47406 50.5782 8.48582 50.5782 7.51327 50.547C7.01131 50.5314 6.66621 50.0782 6.71327 49.6251C6.77602 49.1407 7.05837 48.8439 7.56033 48.8282C8.06229 48.8282 8.54857 48.8282 9.03484 48.8282Z" fill="#002935"/>
<path d="M31.6388 41.1094C32.282 41.1094 32.6741 41.4219 32.7055 41.9375C32.7212 42.4687 32.3761 42.8281 31.7173 42.8438C31.278 42.8594 31.0427 43.0625 30.8859 43.4375C30.6349 44.0312 30.18 44.2344 29.678 44.0469C29.1918 43.8594 29.0349 43.3594 29.2545 42.7656C29.631 41.7188 30.5094 41.1094 31.6388 41.1094Z" fill="#002935"/>
<path d="M8.59646 51.7656C8.92587 51.7656 9.27097 51.75 9.60038 51.7656C10.1023 51.7969 10.4161 52.0937 10.4474 52.5781C10.4788 53.0625 10.1965 53.4375 9.71019 53.4688C8.97293 53.5156 8.21999 53.5156 7.48274 53.4688C6.99646 53.4375 6.69842 53.0781 6.7298 52.5781C6.74548 52.0937 7.04352 51.7812 7.56117 51.75C7.89058 51.75 8.25136 51.7656 8.59646 51.7656Z" fill="#002935"/>
<path d="M16.4082 41.1094C17.5376 41.1407 18.4631 41.8282 18.7768 42.8751C18.9337 43.4219 18.7611 43.8751 18.3219 44.0626C17.8513 44.2501 17.3807 44.0626 17.1454 43.5157C16.9729 43.1251 16.7533 42.8751 16.2827 42.8594C15.6239 42.8438 15.2788 42.4844 15.2945 41.9532C15.3101 41.4063 15.718 41.0938 16.4082 41.1094Z" fill="#002935"/>
</g>
<defs>
<clipPath id="clip0_901_37">
<rect width="48" height="60" fill="white"/>
</clipPath>
</defs>
</svg>
